<svg height="496pt" viewBox="0 -2 496 496" width="496pt" xmlns="http://www.w3.org/2000/svg">
<path d="m405.359375 385.257812 34.640625 98.878907h-208l13.121094-37.441407 21.4375-61.359374c5.28125 10 11.121094 18.800781 21.363281 18.800781 24 0 24-48 48-48s24 48 48.078125 48c10.238281 0 16.160156-8.800781 21.359375-18.878907zm0 0" fill="#b4dd7f"/>
<path d="m84.878906 357.574219c4.722656 8.160156 10.320313 14.5625 19.042969 14.5625 24 0 24-48 48-48s24 48 48.078125 48c8.800781 0 14.320312-6.480469 19.039062-14.640625l26.082032 89.199218-13.121094 37.441407h-184zm0 0" fill="#b4dd7f"/>
<path d="m318.078125 223.894531 29.523437 101.203125c-3.761718-.640625-7.679687-.960937-11.601562-.960937-14.398438 0-27.921875 4.558593-39.121094 12.480469-11.199218 7.917968-19.917968 19.199218-24.71875 32.796874l-5.601562 15.921876-21.4375 61.359374-26.082032-89.199218-5.597656-19.28125c-7.441406-25.359375-29.519531-43.359375-55.519531-45.757813l9.4375-32.320312 10.5625-36.160157c5.359375 10.558594 11.277344 20.160157 22 20.160157 24 0 24-48 48-48s24 48 48.078125 48c10.71875 0 16.640625-9.601563 22.078125-20.242188zm0 0" fill="#8cc152"/>
<g fill="#e6e9ed">
    <path d="m399.839844 369.414062 5.519531 15.84375c-5.199219 10.078126-11.121094 18.878907-21.359375 18.878907-24.078125 0-24.078125-48-48.078125-48s-24 48-48 48c-10.242187 0-16.082031-8.800781-21.363281-18.800781l5.601562-15.921876c4.800782-13.597656 13.519532-24.878906 24.71875-32.796874 11.199219-7.921876 24.722656-12.480469 39.121094-12.480469 3.921875 0 7.839844.320312 11.601562.960937v.078125c23.839844 4.082031 44 20.800781 52.238282 44.238281zm0 0"/>
    <path d="m103.921875 372.136719c-8.722656 0-14.320313-6.402344-19.042969-14.5625l5.679688-19.359375c4-13.597656 12.242187-25.117188 23.042968-33.277344 10.796876-8.082031 24.160157-12.800781 38.398438-12.800781 2 0 4 .078125 5.921875.320312 26 2.398438 48.078125 20.398438 55.519531 45.757813l5.597656 19.28125c-4.71875 8.160156-10.238281 14.640625-19.039062 14.640625-24.078125 0-24.078125-48-48.078125-48s-24 48-48 48zm0 0"/>
    <path d="m309.441406 194.214844 8.636719 29.679687c-5.4375 10.640625-11.359375 20.242188-22.078125 20.242188-24.078125 0-24.078125-48-48.078125-48s-24 48-48 48c-10.722656 0-16.640625-9.601563-22-20.160157l8.636719-29.761718c4-13.597656 12.242187-25.117188 23.042968-33.277344 4.476563-3.363281 9.4375-6.160156 14.71875-8.242188 7.359376-2.960937 15.359376-4.558593 23.679688-4.558593 28.480469 0 53.441406 18.800781 61.441406 46.078125zm0 0"/>
    <path d="m50 180.214844c-1.28125-5.117188-2-10.558594-2-16.078125 0-35.359375 28.640625-64 64-64 28.398438 0 52.398438 18.480469 60.800781 44 5.839844-2.5625 12.398438-4 19.199219-4 12.480469 0 23.839844 4.71875 32.320312 12.558593-5.28125 2.082032-10.242187 4.878907-14.71875 8.242188-10.800781 8.160156-19.042968 19.679688-23.042968 33.277344l-8.636719 29.761718-10.5625 36.160157h-119.359375c-22.078125 0-40-17.921875-40-40 0-22.082031 17.921875-40 40-40 .640625 0 1.359375 0 2 .078125zm0 0"/>
</g>
<path d="m360 60.136719-112 40v-88zm0 0" fill="#ff826e"/>
<line x1="248" y1="10" x2="248" y2="165" style="stroke:#222;stroke-width:5" />
  <ellipse cx="248" cy="165" rx="4" ry="2"
  style="fill:#555;" />
    <ellipse cx="248" cy="8" rx="4" ry="4"
  style="fill:#222;" />
</svg>