<svg height="512pt" viewBox="0 -27 512.00049 512" width="512pt" xmlns="http://www.w3.org/2000/svg"><path d="m285.003906 204.773438-39.433594-79.671876c-8.070312-16.300781-24.382812-26.425781-42.570312-26.425781s-34.5 10.125-42.570312 26.425781l-39.460938 79.742188c-1.527344 3.085938-.757812 6.816406 1.867188 9.042969l31.128906 26.417969c3.28125 2.789062 7.304687 4.1875 11.328125 4.183593 4.019531 0 8.042969-1.394531 11.320312-4.179687l24.703125-20.964844c.941406-.796875 2.300782-.800781 3.242188-.003906l24.714844 20.964844c6.558593 5.574218 16.078124 5.574218 22.648437.003906l31.210937-26.488282c2.625-2.230468 3.394532-5.960937 1.871094-9.046874zm0 0" fill="#b3ddff"/><path d="m405.222656 447.671875-120.21875-242.898437c-1.023437-2.070313-2.945312-3.550782-5.207031-4.019532s-4.609375.132813-6.371094 1.628906l-31.203125 26.484376c-.941406.796874-2.300781.800781-3.242187.003906l-24.714844-20.96875c-6.554687-5.570313-16.078125-5.570313-22.648437-.003906l-24.714844 20.976562c-.933594.792969-2.289063.792969-3.226563-.003906l-31.132812-26.421875c-1.757813-1.492188-4.109375-2.09375-6.371094-1.625-2.257813.46875-4.179687 1.949219-5.203125 4.019531l-120.191406 242.828125c-1.148438 2.328125-1.019532 5.082031.351562 7.285156 1.367188 2.203125 3.777344 3.542969 6.371094 3.542969h391c2.59375 0 5.003906-1.339844 6.371094-3.542969 1.367187-2.203125 1.5-4.957031.351562-7.285156zm0 0" fill="#756458"/><path d="m242.894531 378.335938-15.179687-28.191407c-4.875-9.054687-13.929688-14.460937-24.214844-14.460937s-19.335938 5.40625-24.214844 14.460937l-15.277344 28.378907c-.964843 1.789062-1.160156 3.890624-.546874 5.824218.617187 1.9375 1.988281 3.539063 3.804687 4.445313l23.898437 11.910156c3.847657 1.917969 8.058594 2.875 12.269532 2.875 4.265625 0 8.53125-.980469 12.410156-2.945313l23.832031-12.046874c1.804688-.914063 3.164063-2.519532 3.769531-4.445313.609376-1.929687.40625-4.023437-.550781-5.804687zm0 0" fill="#b3ddff"/><path d="m280.101562 447.445312-37.207031-69.109374c-1.929687-3.582032-6.359375-4.976563-9.988281-3.140626l-23.828125 12.050782c-3.507813 1.773437-7.703125 1.785156-11.222656.03125l-23.898438-11.910156c-3.625-1.804688-8.03125-.410157-9.949219 3.15625l-37.109374 68.921874c-1.253907 2.324219-1.191407 5.132813.164062 7.398438 1.355469 2.269531 3.796875 3.65625 6.4375 3.65625h140c2.640625 0 5.085938-1.390625 6.4375-3.65625 1.355469-2.261719 1.417969-5.074219.164062-7.398438zm0 0" fill="#594235"/><path d="m323.496094 282.902344-10.839844 19.75-39.574219-80.300782-6.851562-13.847656 7.191406-6.109375c1.761719-1.492187 4.109375-2.101562 6.367187-1.628906 2.265626.464844 4.183594 1.949219 5.214844 4.019531zm0 0" fill="#635349"/><path d="m435.714844 310.035156-33.839844-61.691406c-6.683594-12.191406-18.976562-19.46875-32.875-19.46875s-26.191406 7.277344-32.875 19.46875l-33.800781 61.597656c-1.746094 3.1875-.960938 7.164063 1.867187 9.445313l23.804688 19.207031c3.183594 2.578125 7.089844 3.867188 10.996094 3.867188 3.902343 0 7.808593-1.289063 10.988281-3.863282l17.527343-14.148437c.914063-.734375 2.230469-.738281 3.144532 0l17.53125 14.144531c6.363281 5.144531 15.609375 5.148438 21.988281.003906l23.679687-19.121094c2.824219-2.28125 3.609376-6.257812 1.863282-9.441406zm0 0" fill="#b3ddff"/><path d="m511.074219 447.394531-75.359375-137.359375c-1.066406-1.949218-2.945313-3.324218-5.121094-3.75-2.179688-.433594-4.4375.125-6.164062 1.519532l-23.675782 19.117187c-.929687.746094-2.21875.75-3.144531 0l-17.53125-14.144531c-6.363281-5.144532-15.609375-5.148438-21.988281-.003906l-17.535156 14.15625c-.90625.730468-2.222657.730468-3.136719-.007813l-23.808594-19.207031c-1.726563-1.398438-3.980469-1.949219-6.164063-1.523438-2.175781.433594-4.054687 1.804688-5.121093 3.75l-75.398438 137.453125c-1.277343 2.320313-1.230469 5.144531.121094 7.425781s3.804687 3.679688 6.453125 3.679688h271c2.648438 0 5.105469-1.398438 6.453125-3.679688 1.351563-2.28125 1.398437-5.105468.121094-7.425781zm0 0" fill="#916643"/><g fill="#ffb600"><path d="m404 41.5c-30.328125 0-55 24.671875-55 55s24.671875 55 55 55 55-24.671875 55-55-24.671875-55-55-55zm0 0"/><path d="m404 192.332031c-4.144531 0-7.5-3.355469-7.5-7.5v-9.332031c0-4.140625 3.355469-7.5 7.5-7.5s7.5 3.359375 7.5 7.5v9.332031c0 4.144531-3.355469 7.5-7.5 7.5zm0 0"/><path d="m404 24.332031c-4.144531 0-7.5-3.355469-7.5-7.5v-9.332031c0-4.140625 3.355469-7.5 7.5-7.5s7.5 3.359375 7.5 7.5v9.332031c0 4.144531-3.355469 7.5-7.5 7.5zm0 0"/><path d="m492.667969 104h-9.335938c-4.140625 0-7.5-3.359375-7.5-7.5s3.359375-7.5 7.5-7.5h9.335938c4.140625 0 7.5 3.359375 7.5 7.5s-3.359375 7.5-7.5 7.5zm0 0"/><path d="m324.667969 104h-9.335938c-4.140625 0-7.5-3.359375-7.5-7.5s3.359375-7.5 7.5-7.5h9.335938c4.140625 0 7.5 3.359375 7.5 7.5s-3.359375 7.5-7.5 7.5zm0 0"/><path d="m327.21875 148c-2.589844 0-5.109375-1.34375-6.5-3.75-2.070312-3.585938-.84375-8.171875 2.746094-10.246094l8.082031-4.664062c3.582031-2.070313 8.171875-.84375 10.242187 2.742187 2.070313 3.589844.84375 8.175781-2.742187 10.246094l-8.082031 4.667969c-1.183594.679687-2.472656 1.003906-3.746094 1.003906zm0 0"/><path d="m472.710938 64c-2.589844 0-5.109376-1.34375-6.5-3.75-2.070313-3.585938-.84375-8.171875 2.746093-10.246094l8.082031-4.664062c3.585938-2.070313 8.171876-.84375 10.242188 2.742187 2.070312 3.589844.84375 8.175781-2.742188 10.246094l-8.082031 4.667969c-1.183593.679687-2.472656 1.003906-3.746093 1.003906zm0 0"/><path d="m448.050781 180.625c-2.589843 0-5.109375-1.347656-6.5-3.753906l-4.667969-8.082032c-2.070312-3.585937-.839843-8.171874 2.746094-10.246093 3.585938-2.070313 8.171875-.839844 10.246094 2.746093l4.664062 8.082032c2.070313 3.589844.84375 8.175781-2.742187 10.246094-1.183594.679687-2.472656 1.007812-3.746094 1.007812zm0 0"/><path d="m364.050781 35.128906c-2.589843 0-5.109375-1.34375-6.5-3.75l-4.667969-8.082031c-2.070312-3.585937-.839843-8.175781 2.746094-10.246094 3.585938-2.070312 8.171875-.84375 10.246094 2.746094l4.664062 8.082031c2.070313 3.585938.84375 8.175782-2.742187 10.246094-1.183594.679688-2.472656 1.003906-3.746094 1.003906zm0 0"/><path d="m335.289062 64c-1.273437 0-2.5625-.324219-3.742187-1.003906l-8.085937-4.667969c-3.585938-2.070313-4.816407-6.65625-2.742188-10.246094 2.070312-3.585937 6.65625-4.816406 10.242188-2.742187l8.085937 4.664062c3.585937 2.074219 4.8125 6.660156 2.742187 10.246094-1.386718 2.40625-3.910156 3.75-6.5 3.75zm0 0"/><path d="m480.78125 148c-1.273438 0-2.5625-.324219-3.742188-1.003906l-8.082031-4.667969c-3.589843-2.070313-4.816406-6.65625-2.746093-10.246094 2.070312-3.585937 6.652343-4.816406 10.246093-2.742187l8.082031 4.664062c3.585938 2.074219 4.816407 6.660156 2.746094 10.246094-1.390625 2.40625-3.910156 3.75-6.503906 3.75zm0 0"/><path d="m359.371094 180.289062c-1.273438 0-2.5625-.324218-3.742188-1.003906-3.585937-2.074218-4.816406-6.660156-2.746094-10.246094l4.667969-8.082031c2.070313-3.589843 6.660157-4.820312 10.246094-2.746093 3.585937 2.070312 4.8125 6.65625 2.742187 10.246093l-4.664062 8.082031c-1.390625 2.40625-3.910156 3.75-6.503906 3.75zm0 0"/><path d="m443.371094 34.796875c-1.273438 0-2.5625-.324219-3.742188-1.003906-3.585937-2.074219-4.816406-6.660157-2.746094-10.246094l4.667969-8.082031c2.070313-3.589844 6.660157-4.820313 10.246094-2.746094 3.585937 2.070312 4.8125 6.65625 2.742187 10.246094l-4.664062 8.082031c-1.390625 2.40625-3.910156 3.75-6.503906 3.75zm0 0"/></g><path d="m285.003906 204.785156c-1.03125-2.070312-2.949218-3.554687-5.214844-4.019531-2.253906-.472656-4.605468.136719-6.367187 1.628906l-7.191406 6.109375-1.84375-3.71875c-.0625-.125-.132813-.257812-.195313-.382812l-39.230468-79.292969c-6.507813-13.144531-18.375-22.269531-32.265626-25.308594 3.328126-.734375 6.78125-1.113281 10.304688-1.113281 18.183594 0 34.5 10.125 42.566406 26.421875zm0 0" fill="#82bfe0"/><path d="m435.707031 310.050781c-1.0625-1.949219-2.9375-3.328125-5.121093-3.75-2.183594-.433593-4.4375.121094-6.160157 1.511719l-7.3125 5.902344-2.007812-3.664063-33.84375-61.699219c-4.972657-9.066406-13.039063-15.414062-22.570313-18.070312 3.285156-.925781 6.738282-1.398438 10.304688-1.398438 13.90625 0 26.195312 7.28125 32.882812 19.46875zm0 0" fill="#82bfe0"/><path d="m510.953125 454.832031c-1.351563 2.285157-3.804687 3.675781-6.460937 3.675781h-20.605469c2.648437 0 5.101562-1.390624 6.449219-3.675781 1.351562-2.277343 1.402343-5.101562.125-7.429687l-66.015626-120.324219-7.332031-13.363281 7.3125-5.902344c1.71875-1.390625 3.976563-1.945312 6.160157-1.511719 2.183593.421875 4.058593 1.800781 5.121093 3.75l75.367188 137.351563c1.269531 2.328125 1.226562 5.152344-.121094 7.429687zm0 0" fill="#845939"/><path d="m459 96.511719c0 30.332031-24.671875 55.003906-55 55.003906-3.523438 0-6.964844-.332031-10.304688-.980469 25.417969-4.832031 44.691407-27.21875 44.691407-54.023437 0-26.804688-19.277344-49.191407-44.691407-54.023438 3.339844-.648437 6.78125-.976562 10.304688-.976562 30.328125 0 55 24.671875 55 55zm0 0" fill="#dd9300"/></svg>