<?xml version="1.0" encoding="utf-8"?>
<!-- Generator: Adobe Illustrator 25.0.1, SVG Export Plug-In . SVG Version: 6.00 Build 0)  -->
<svg version="1.1" id="Layer_1" xmlns="http://www.w3.org/2000/svg" xmlns:xlink="http://www.w3.org/1999/xlink" x="0px" y="0px"
	 viewBox="0 0 412.23 191.1" style="enable-background:new 0 0 412.23 191.1;" xml:space="preserve">
<style type="text/css">
	.st0{clip-path:url(#SVGID_2_);}
	.st1{fill:#FFFFFF;}
</style>
<g>
	<defs>
		<rect id="SVGID_1_" width="412.23" height="191.1"/>
	</defs>
	<clipPath id="SVGID_2_">
		<use xlink:href="#SVGID_1_"  style="overflow:visible;"/>
	</clipPath>
	<g class="st0">
		<path class="st1" d="M172.28,63.33c-7.27-7.27-19.04-7.27-26.31,0l-6.83,6.83c4.22-7.13,3.26-16.48-2.87-22.61
			c-7.27-7.27-19.04-7.27-26.31,0L100.51,57c4.22-7.13,3.26-16.48-2.87-22.61h0c-7.27-7.27-19.04-7.27-26.31,0L28.94,76.78v52.62
			L80.73,77.6l0,51.79l51.79-51.79l0,51.79l39.76-39.76C179.55,82.37,179.55,70.6,172.28,63.33L172.28,63.33z"/>
		<polygon class="st1" points="240.19,115.99 240.19,87.75 235.1,87.75 226.39,110.67 217.48,87.75 212.39,87.75 212.39,115.99 
			215.9,115.99 215.9,93.04 224.98,116.11 227.56,116.11 236.6,92.88 236.6,115.99 		"/>
		<path class="st1" d="M263.27,115.99V95.82h-3.59v11.13c0,4.15-1.81,6.41-5.2,6.41c-2.91,0-4.56-1.86-4.56-5.08V95.82h-3.59v13.07
			c0,4.64,2.82,7.58,7.38,7.58c2.62,0,4.76-1.01,6.05-2.94v2.46H263.27z"/>
		<path class="st1" d="M278.17,104.29l-3.23-0.53c-2.22-0.36-3.15-1.21-3.15-2.78c0-1.65,1.49-2.82,4.08-2.82
			c2.7,0,4.15,1.09,4.8,3.87l3.31-0.48c-0.65-3.99-3.43-6.21-8.07-6.21c-4.64,0-7.58,2.46-7.58,5.85c0,3.11,2.1,5.08,5.93,5.69
			l2.91,0.44c2.3,0.32,3.55,1.33,3.55,2.91c0,2.26-1.49,3.43-4.27,3.43c-3.19,0-4.8-1.41-5.16-4.36l-3.59,0.53
			c0.28,4.03,3.47,6.65,8.75,6.65c4.88,0,7.86-2.54,7.86-6.41C284.3,106.87,282.2,104.94,278.17,104.29z"/>
		<path class="st1" d="M302.5,109.5c-0.6,2.7-2.26,4.08-5.12,4.08c-3.87,0-5.93-2.26-6.13-6.82h14.93v-1.74
			c0-5.97-3.35-9.68-8.87-9.68c-2.95,0-5.33,0.97-7.06,2.91c-1.74,1.9-2.62,4.48-2.62,7.66c0,6.82,3.47,10.57,9.76,10.57
			c4.4,0,7.67-2.42,8.43-6.33L302.5,109.5z M297.21,98.2c3.27,0,5.04,1.98,5.24,5.89h-11.13C291.77,100.22,293.82,98.2,297.21,98.2z
			"/>
		<path class="st1" d="M324.01,106.95c0,4.15-1.81,6.41-5.2,6.41c-2.91,0-4.56-1.86-4.56-5.08V95.82h-3.59v13.07
			c0,4.64,2.82,7.58,7.38,7.58c2.62,0,4.76-1.01,6.05-2.94v2.46h3.51V95.82h-3.59V106.95z"/>
		<path class="st1" d="M355.84,95.34c-3.03,0-5.2,1.25-6.49,3.63c-1.13-2.38-3.39-3.63-6.33-3.63c-2.58,0-4.6,1.01-5.93,2.95v-2.46
			h-3.51v20.17h3.59v-11.13c0-4.19,1.77-6.41,5.04-6.41c2.79,0,4.4,1.86,4.4,5.12v12.42h3.59v-11.13c0-4.19,1.78-6.41,5.04-6.41
			c2.78,0,4.4,1.86,4.4,5.12v12.42h3.59v-13.07C363.23,98.28,360.48,95.34,355.84,95.34z"/>
		<path class="st1" d="M377.88,104.29l-3.23-0.53c-2.22-0.36-3.15-1.21-3.15-2.78c0-1.65,1.49-2.82,4.08-2.82
			c2.7,0,4.15,1.09,4.8,3.87l3.31-0.48c-0.65-3.99-3.43-6.21-8.07-6.21s-7.58,2.46-7.58,5.85c0,3.11,2.1,5.08,5.93,5.69l2.91,0.44
			c2.3,0.32,3.55,1.33,3.55,2.91c0,2.26-1.49,3.43-4.27,3.43c-3.19,0-4.8-1.41-5.16-4.36l-3.59,0.53c0.28,4.03,3.47,6.65,8.75,6.65
			c4.88,0,7.86-2.54,7.86-6.41C384.01,106.87,381.92,104.94,377.88,104.29z"/>
		<path class="st1" d="M224.05,136.3c4.72,0,7.54,2.5,8.67,7.54l3.87-0.57c-1.25-6.74-5.65-10.37-12.59-10.37
			c-3.99,0-7.18,1.33-9.56,3.99c-2.38,2.62-3.55,6.17-3.55,10.61c0,4.48,1.17,8.03,3.51,10.65c2.38,2.62,5.57,3.95,9.6,3.95
			c6.41,0,10.93-3.67,12.38-9.96l-3.75-0.53c-1.33,4.84-4.07,7.1-8.59,7.1c-5.81,0-9.2-4.24-9.2-11.21
			C214.85,140.53,218.24,136.3,224.05,136.3z"/>
		<path class="st1" d="M256.45,157.11v-9.08c0-4.24-2.91-7.06-7.79-7.06c-4.64,0-7.83,2.54-8.43,6.21l3.39,0.41
			c0.6-2.54,2.18-3.75,4.92-3.75c2.78,0,4.4,1.57,4.4,3.71c0,0.85-0.4,1.29-1.25,1.45l-5.89,1.01c-3.91,0.65-6.09,2.86-6.09,6.21
			c0,3.43,2.78,5.89,7.02,5.89c2.74,0,4.96-1.13,6.37-3.35c0.2,1.81,1.78,2.86,3.87,2.86h1.93v-2.99h-0.97
			C256.86,158.64,256.45,158.24,256.45,157.11z M252.99,152.67c0,3.87-2.46,6.58-5.85,6.58c-2.46,0-3.87-1.21-3.87-3.27
			c0-1.81,1.13-2.98,3.27-3.35l6.46-1.13V152.67z"/>
		<path class="st1" d="M272.28,140.98c-2.74,0-4.96,1.05-6.3,3.03v-2.54h-3.51v20.17h3.59V150.5c0-4.19,1.9-6.41,5.41-6.41
			c3.07,0,4.76,1.86,4.76,5.12v12.42h3.59v-13.07C279.82,143.92,276.99,140.98,272.28,140.98z"/>
		<path class="st1" d="M300.88,157.11v-9.08c0-4.24-2.91-7.06-7.79-7.06c-4.64,0-7.83,2.54-8.43,6.21l3.39,0.41
			c0.6-2.54,2.18-3.75,4.92-3.75c2.78,0,4.4,1.57,4.4,3.71c0,0.85-0.4,1.29-1.25,1.45l-5.89,1.01c-3.91,0.65-6.09,2.86-6.09,6.21
			c0,3.43,2.78,5.89,7.02,5.89c2.74,0,4.96-1.13,6.37-3.35c0.2,1.81,1.78,2.86,3.87,2.86h1.93v-2.99h-0.97
			C301.29,158.64,300.88,158.24,300.88,157.11z M297.42,152.67c0,3.87-2.46,6.58-5.85,6.58c-2.46,0-3.87-1.21-3.87-3.27
			c0-1.81,1.13-2.98,3.27-3.35l6.46-1.13V152.67z"/>
		<path class="st1" d="M321.18,144.24c-1.57-2.14-3.75-3.27-6.53-3.27c-2.7,0-4.88,0.97-6.53,2.94c-1.65,1.98-2.46,4.56-2.46,7.79
			c0,3.15,0.81,5.69,2.42,7.58c1.65,1.9,3.83,2.82,6.58,2.82c2.78,0,5.04-1.21,6.62-3.51v3.03h3.51v-28.24h-3.59V144.24z
			 M315.17,159.01c-3.59,0-5.85-2.91-5.85-7.46c0-4.56,2.26-7.5,5.85-7.5c3.67,0,6.09,3.03,6.09,7.5
			C321.26,156.06,318.88,159.01,315.17,159.01z"/>
		<path class="st1" d="M346.08,157.11v-9.08c0-4.24-2.91-7.06-7.79-7.06c-4.64,0-7.83,2.54-8.43,6.21l3.39,0.41
			c0.6-2.54,2.18-3.75,4.92-3.75c2.78,0,4.4,1.57,4.4,3.71c0,0.85-0.4,1.29-1.25,1.45l-5.89,1.01c-3.91,0.65-6.09,2.86-6.09,6.21
			c0,3.43,2.78,5.89,7.02,5.89c2.74,0,4.96-1.13,6.37-3.35c0.2,1.81,1.78,2.86,3.87,2.86h1.93v-2.99h-0.97
			C346.48,158.64,346.08,158.24,346.08,157.11z M342.61,152.67c0,3.87-2.46,6.58-5.85,6.58c-2.46,0-3.87-1.21-3.87-3.27
			c0-1.81,1.13-2.98,3.27-3.35l6.46-1.13V152.67z"/>
		<path class="st1" d="M233.57,66.4c2.54-2.66,3.83-6.17,3.83-10.53c0-4.15-1.25-7.5-3.79-10c-2.5-2.5-5.89-3.75-10.16-3.75h-11.05
			v28.24h11.05C227.68,70.35,231.03,69.02,233.57,66.4z M216.26,45.46h7.18c3.07,0,5.48,0.93,7.3,2.82c1.82,1.9,2.7,4.4,2.7,7.58
			c0,3.35-0.89,6.05-2.7,8.11c-1.81,2.02-4.23,3.03-7.3,3.03h-7.18V45.46z"/>
		<rect x="242.26" y="42.11" class="st1" width="3.59" height="4.8"/>
		<rect x="242.26" y="50.18" class="st1" width="3.59" height="20.17"/>
		<path class="st1" d="M259.36,69.14c2.58,0,4.72-1.09,6.17-3.07v3.15c0,4.03-1.86,6.09-5.41,6.09c-3.19,0-4.96-1.25-5.49-4.16
			l-3.59,0.36c0.44,4.19,3.71,6.78,9.08,6.78c5.69,0,9-3.39,9-8.87V50.18h-3.51v2.46c-1.45-1.94-3.63-2.94-6.25-2.94
			c-2.62,0-4.76,0.89-6.33,2.7c-1.57,1.78-2.38,4.12-2.38,7.06c0,2.95,0.77,5.32,2.34,7.06C254.56,68.25,256.7,69.14,259.36,69.14z
			 M260.05,52.72c1.65,0,2.98,0.64,3.99,1.9c1.05,1.25,1.58,2.86,1.58,4.8c0,3.99-2.22,6.66-5.57,6.66c-3.59,0-5.69-2.46-5.69-6.66
			S256.46,52.72,260.05,52.72z"/>
		<rect x="275.02" y="42.11" class="st1" width="3.59" height="4.8"/>
		<rect x="275.02" y="50.18" class="st1" width="3.59" height="20.17"/>
		<path class="st1" d="M285.84,64.9c0,3.55,1.94,5.45,5.53,5.45h3.63v-3.07h-3.07c-1.81,0-2.5-0.73-2.5-2.86v-11.3h5.08v-2.94h-5.08
			v-6.5h-3.59v6.5h-3.55v2.94h3.55V64.9z"/>
		<rect x="319.85" y="42.11" class="st1" width="3.59" height="28.24"/>
		<path class="st1" d="M309.32,57.68l-5.89,1.01c-3.91,0.65-6.09,2.86-6.09,6.21c0,3.43,2.78,5.89,7.02,5.89
			c2.74,0,4.96-1.13,6.37-3.35c0.2,1.81,1.78,2.86,3.87,2.86h1.93v-2.99h-0.97c-1.09,0-1.49-0.4-1.49-1.53v-9.08
			c0-4.24-2.91-7.06-7.79-7.06c-4.64,0-7.83,2.54-8.43,6.21l3.39,0.41c0.6-2.54,2.18-3.75,4.92-3.75c2.78,0,4.4,1.57,4.4,3.71
			C310.57,57.08,310.17,57.52,309.32,57.68z M310.61,60.18v1.17c0,3.87-2.46,6.58-5.85,6.58c-2.46,0-3.87-1.21-3.87-3.27
			c0-1.81,1.13-2.98,3.27-3.35L310.61,60.18z"/>
	</g>
</g>
</svg>
