<?xml version="1.0" encoding="utf-8"?>
<!-- Generator: Adobe Illustrator 25.0.1, SVG Export Plug-In . SVG Version: 6.00 Build 0)  -->
<svg version="1.1" id="Layer_1" xmlns="http://www.w3.org/2000/svg" xmlns:xlink="http://www.w3.org/1999/xlink" x="0px" y="0px"
	 viewBox="0 0 451.38 191.1" style="enable-background:new 0 0 451.38 191.1;" xml:space="preserve">
<style type="text/css">
	.st0{clip-path:url(#SVGID_2_);}
	.st1{fill:#0C0C0C;}
</style>
<g>
	<defs>
		<rect id="SVGID_1_" width="451.38" height="191.1"/>
	</defs>
	<clipPath id="SVGID_2_">
		<use xlink:href="#SVGID_1_"  style="overflow:visible;"/>
	</clipPath>
	<g class="st0">
		<path class="st1" d="M172.28,63.33c-7.27-7.27-19.04-7.27-26.31,0l-6.83,6.83c4.22-7.13,3.26-16.48-2.87-22.61
			c-7.27-7.27-19.04-7.27-26.31,0L100.51,57c4.22-7.13,3.26-16.48-2.87-22.61h0c-7.27-7.27-19.04-7.27-26.31,0L28.94,76.78v52.62
			L80.73,77.6l0,51.79l51.79-51.79l0,51.79l39.76-39.76C179.55,82.37,179.55,70.6,172.28,63.33L172.28,63.33z"/>
		<polygon class="st1" points="215.91,47.4 224.99,70.47 227.57,70.47 236.61,47.24 236.61,70.35 240.2,70.35 240.2,42.11 
			235.12,42.11 226.4,65.02 217.49,42.11 212.41,42.11 212.41,70.35 215.91,70.35 		"/>
		<path class="st1" d="M253.73,70.84c2.62,0,4.76-1.01,6.05-2.95v2.46h3.51V50.18h-3.59v11.13c0,4.16-1.81,6.41-5.2,6.41
			c-2.91,0-4.56-1.86-4.56-5.08V50.18h-3.59v13.07C246.34,67.89,249.17,70.84,253.73,70.84z"/>
		<path class="st1" d="M276.44,68.01c-3.19,0-4.8-1.41-5.16-4.36l-3.59,0.53c0.28,4.03,3.47,6.66,8.75,6.66
			c4.88,0,7.86-2.54,7.86-6.41c0-3.19-2.1-5.12-6.13-5.77l-3.23-0.53c-2.22-0.36-3.15-1.21-3.15-2.78c0-1.65,1.49-2.82,4.08-2.82
			c2.7,0,4.15,1.09,4.8,3.87l3.31-0.48c-0.65-3.99-3.43-6.21-8.07-6.21s-7.58,2.46-7.58,5.85c0,3.11,2.1,5.08,5.93,5.69l2.91,0.44
			c2.3,0.32,3.55,1.33,3.55,2.9C280.72,66.84,279.23,68.01,276.44,68.01z"/>
		<polygon class="st1" points="302.79,41.14 299.16,41.14 295.69,46.91 299.16,46.91 		"/>
		<path class="st1" d="M297.39,70.84c4.4,0,7.67-2.42,8.43-6.33l-3.31-0.65c-0.6,2.7-2.26,4.08-5.12,4.08
			c-3.87,0-5.93-2.26-6.13-6.82h14.93v-1.73c0-5.97-3.35-9.68-8.87-9.68c-2.95,0-5.33,0.97-7.06,2.9c-1.74,1.9-2.62,4.48-2.62,7.67
			C287.63,67.08,291.09,70.84,297.39,70.84z M297.23,52.56c3.27,0,5.04,1.98,5.25,5.89h-11.13
			C291.78,54.58,293.84,52.56,297.23,52.56z"/>
		<path class="st1" d="M319.3,49.7c-2.95,0-5.33,0.97-7.06,2.9c-1.74,1.9-2.62,4.48-2.62,7.67c0,6.82,3.47,10.57,9.76,10.57
			c4.4,0,7.67-2.42,8.43-6.33l-3.31-0.65c-0.6,2.7-2.26,4.08-5.12,4.08c-3.87,0-5.93-2.26-6.13-6.82h14.93v-1.73
			C328.17,53.41,324.83,49.7,319.3,49.7z M313.33,58.45c0.44-3.87,2.5-5.89,5.89-5.89c3.27,0,5.04,1.98,5.25,5.89H313.33z"/>
		<path class="st1" d="M340.08,68.01c-3.19,0-4.8-1.41-5.16-4.36l-3.59,0.53c0.28,4.03,3.47,6.66,8.75,6.66
			c4.88,0,7.86-2.54,7.86-6.41c0-3.19-2.1-5.12-6.13-5.77l-3.23-0.53c-2.22-0.36-3.15-1.21-3.15-2.78c0-1.65,1.49-2.82,4.08-2.82
			c2.7,0,4.15,1.09,4.8,3.87l3.31-0.48c-0.65-3.99-3.43-6.21-8.07-6.21c-4.64,0-7.58,2.46-7.58,5.85c0,3.11,2.1,5.08,5.93,5.69
			l2.91,0.44c2.3,0.32,3.55,1.33,3.55,2.9C344.36,66.84,342.87,68.01,340.08,68.01z"/>
		<path class="st1" d="M216,104.86c0-4.19,1.9-6.41,5.41-6.41c3.07,0,4.76,1.86,4.76,5.12v12.42h3.59v-13.07
			c0-4.64-2.82-7.58-7.54-7.58c-2.74,0-4.96,1.05-6.3,3.03v-2.54h-3.51v20.17H216V104.86z"/>
		<path class="st1" d="M248.68,113.53v2.46h3.51V95.82h-3.59v11.13c0,4.15-1.81,6.41-5.2,6.41c-2.91,0-4.56-1.86-4.56-5.08V95.82
			h-3.59v13.07c0,4.64,2.82,7.58,7.38,7.58C245.25,116.47,247.39,115.46,248.68,113.53z"/>
		<path class="st1" d="M287.82,115.99v-13.07c0-4.64-2.74-7.58-7.38-7.58c-3.03,0-5.2,1.25-6.49,3.63
			c-1.13-2.38-3.39-3.63-6.33-3.63c-2.58,0-4.6,1.01-5.93,2.95v-2.46h-3.51v20.17h3.59v-11.13c0-4.19,1.77-6.41,5.04-6.41
			c2.78,0,4.4,1.86,4.4,5.12v12.42h3.59v-11.13c0-4.19,1.78-6.41,5.04-6.41c2.78,0,4.4,1.86,4.4,5.12v12.42H287.82z"/>
		<path class="st1" d="M310.82,105.02c0-5.97-3.35-9.68-8.87-9.68c-2.95,0-5.33,0.97-7.06,2.91c-1.74,1.9-2.62,4.48-2.62,7.66
			c0,6.82,3.47,10.57,9.76,10.57c4.4,0,7.67-2.42,8.43-6.33l-3.31-0.64c-0.6,2.7-2.26,4.08-5.12,4.08c-3.87,0-5.93-2.26-6.13-6.82
			h14.93V105.02z M295.98,104.09c0.44-3.87,2.5-5.89,5.89-5.89c3.27,0,5.04,1.98,5.24,5.89H295.98z"/>
		<polygon class="st1" points="300.33,92.55 303.8,92.55 307.43,86.79 303.8,86.79 		"/>
		<path class="st1" d="M319.06,99.49v-3.67h-3.51v20.17h3.59v-8.59c0-5.04,2.22-8.19,5.65-8.19h1.61v-3.39h-1.57
			C322.29,95.82,320.35,97.07,319.06,99.49z"/>
		<rect x="330.16" y="87.75" class="st1" width="3.59" height="4.8"/>
		<rect x="330.16" y="95.82" class="st1" width="3.59" height="20.17"/>
		<path class="st1" d="M354.08,98.73c-1.49-2.22-3.83-3.39-6.62-3.39c-2.7,0-4.88,0.97-6.53,2.95c-1.65,1.98-2.46,4.56-2.46,7.79
			c0,3.14,0.81,5.69,2.42,7.58c1.65,1.9,3.83,2.82,6.58,2.82c2.74,0,4.96-1.13,6.53-3.39v10.36h3.55V95.82h-3.47V98.73z
			 M347.99,113.37c-3.59,0-5.85-2.9-5.85-7.46c0-4.56,2.26-7.5,5.85-7.5c3.67,0,6.09,3.03,6.09,7.5
			C354.08,110.42,351.7,113.37,347.99,113.37z"/>
		<path class="st1" d="M376.64,106.95c0,4.15-1.81,6.41-5.2,6.41c-2.91,0-4.56-1.86-4.56-5.08V95.82h-3.59v13.07
			c0,4.64,2.82,7.58,7.38,7.58c2.62,0,4.76-1.01,6.05-2.94v2.46h3.51V95.82h-3.59V106.95z"/>
		<path class="st1" d="M394.6,95.34c-2.95,0-5.33,0.97-7.06,2.91c-1.74,1.9-2.62,4.48-2.62,7.66c0,6.82,3.47,10.57,9.76,10.57
			c4.4,0,7.67-2.42,8.43-6.33l-3.31-0.64c-0.6,2.7-2.26,4.08-5.12,4.08c-3.87,0-5.93-2.26-6.13-6.82h14.93v-1.74
			C403.48,99.05,400.13,95.34,394.6,95.34z M388.63,104.09c0.44-3.87,2.5-5.89,5.89-5.89c3.27,0,5.04,1.98,5.24,5.89H388.63z"/>
		<path class="st1" d="M417.12,104.29l-3.23-0.53c-2.22-0.36-3.15-1.21-3.15-2.78c0-1.65,1.49-2.82,4.08-2.82
			c2.7,0,4.15,1.09,4.8,3.87l3.31-0.48c-0.65-3.99-3.43-6.21-8.07-6.21s-7.58,2.46-7.58,5.85c0,3.11,2.1,5.08,5.93,5.69l2.91,0.44
			c2.3,0.32,3.55,1.33,3.55,2.91c0,2.26-1.49,3.43-4.27,3.43c-3.19,0-4.8-1.41-5.16-4.36l-3.59,0.53c0.28,4.03,3.47,6.65,8.75,6.65
			c4.88,0,7.86-2.54,7.86-6.41C423.25,106.87,421.15,104.94,417.12,104.29z"/>
		<path class="st1" d="M224.3,136.35c4.72,0,7.54,2.5,8.67,7.54l3.87-0.57c-1.25-6.74-5.65-10.37-12.59-10.37
			c-3.99,0-7.18,1.33-9.56,3.99c-2.38,2.62-3.55,6.17-3.55,10.61c0,4.48,1.17,8.03,3.51,10.65c2.38,2.62,5.57,3.95,9.6,3.95
			c6.41,0,10.93-3.67,12.38-9.97l-3.75-0.53c-1.33,4.84-4.07,7.1-8.59,7.1c-5.81,0-9.2-4.24-9.2-11.21S218.49,136.35,224.3,136.35z"
			/>
		<path class="st1" d="M256.7,157.16v-9.08c0-4.24-2.91-7.06-7.79-7.06c-4.64,0-7.83,2.54-8.43,6.21l3.39,0.41
			c0.6-2.54,2.18-3.75,4.92-3.75c2.78,0,4.4,1.57,4.4,3.71c0,0.85-0.4,1.29-1.25,1.45l-5.89,1.01c-3.91,0.65-6.09,2.86-6.09,6.21
			c0,3.43,2.78,5.89,7.02,5.89c2.74,0,4.96-1.13,6.37-3.35c0.2,1.81,1.78,2.86,3.87,2.86h1.93v-2.99h-0.97
			C257.11,158.69,256.7,158.29,256.7,157.16z M253.24,152.72c0,3.87-2.46,6.58-5.85,6.58c-2.46,0-3.87-1.21-3.87-3.27
			c0-1.81,1.13-2.98,3.27-3.35l6.46-1.13V152.72z"/>
		<path class="st1" d="M272.53,141.03c-2.74,0-4.96,1.05-6.3,3.03v-2.54h-3.51v20.17h3.59v-11.13c0-4.19,1.9-6.41,5.41-6.41
			c3.07,0,4.76,1.86,4.76,5.12v12.42h3.59v-13.07C280.07,143.97,277.24,141.03,272.53,141.03z"/>
		<path class="st1" d="M301.14,157.16v-9.08c0-4.24-2.91-7.06-7.79-7.06c-4.64,0-7.83,2.54-8.43,6.21l3.39,0.41
			c0.6-2.54,2.18-3.75,4.92-3.75c2.78,0,4.4,1.57,4.4,3.71c0,0.85-0.4,1.29-1.25,1.45l-5.89,1.01c-3.91,0.65-6.09,2.86-6.09,6.21
			c0,3.43,2.78,5.89,7.02,5.89c2.74,0,4.96-1.13,6.37-3.35c0.2,1.81,1.78,2.86,3.87,2.86h1.93v-2.99h-0.97
			C301.54,158.69,301.14,158.29,301.14,157.16z M297.67,152.72c0,3.87-2.46,6.58-5.85,6.58c-2.46,0-3.87-1.21-3.87-3.27
			c0-1.81,1.13-2.98,3.27-3.35l6.46-1.13V152.72z"/>
		<path class="st1" d="M321.43,144.29c-1.57-2.14-3.75-3.27-6.53-3.27c-2.7,0-4.88,0.97-6.53,2.94c-1.65,1.98-2.46,4.56-2.46,7.79
			c0,3.15,0.81,5.69,2.42,7.58c1.65,1.9,3.83,2.82,6.58,2.82c2.78,0,5.04-1.21,6.62-3.51v3.03h3.51v-28.24h-3.59V144.29z
			 M315.42,159.06c-3.59,0-5.85-2.91-5.85-7.46c0-4.56,2.26-7.5,5.85-7.5c3.67,0,6.09,3.03,6.09,7.5
			C321.51,156.11,319.13,159.06,315.42,159.06z"/>
		<path class="st1" d="M346.33,157.16v-9.08c0-4.24-2.91-7.06-7.79-7.06c-4.64,0-7.83,2.54-8.43,6.21l3.39,0.41
			c0.6-2.54,2.18-3.75,4.92-3.75c2.78,0,4.4,1.57,4.4,3.71c0,0.85-0.4,1.29-1.25,1.45l-5.89,1.01c-3.91,0.65-6.09,2.86-6.09,6.21
			c0,3.43,2.78,5.89,7.02,5.89c2.74,0,4.96-1.13,6.37-3.35c0.2,1.81,1.78,2.86,3.87,2.86h1.93v-2.99h-0.97
			C346.73,158.69,346.33,158.29,346.33,157.16z M342.86,152.72c0,3.87-2.46,6.58-5.85,6.58c-2.46,0-3.87-1.21-3.87-3.27
			c0-1.81,1.13-2.98,3.27-3.35l6.46-1.13V152.72z"/>
	</g>
</g>
</svg>
