<svg xmlns="http://www.w3.org/2000/svg" xmlns:xlink="http://www.w3.org/1999/xlink" version="1.1" x="0px" y="0px" viewBox="6.7 89 111.3 38.1" enable-background="new 6.7 89 111.3 38.1" xml:space="preserve" aria-labelledby="title-logo-mvc-vmc-logo-fra" aria-describedby="desc-logo-mvc-vmc-logo-fra" role="img" id="logo_mvc-vmc_logo-fra" class="injected-svg svg vmc-mvc mvc-vmc-fra" data-src="img/logos/logo_mvc-vmc_logo-fra.svg" data-fallback="img/logos/logo_mvc-vmc_logo-fra.png" data-alt="Musée virtuel du Canada">
<title id="title-logo-mvc-vmc-logo-fra">Musée virtuel du Canada (MVC)</title>
<desc id="desc-logo-mvc-vmc-logo-fra">museevirtuel.ca</desc>
<g>
	<g>
		<g>
			<path fill="#ED2224" d="M106.4,102.5c-0.1,0.1-0.8,1.6-2,3.1c-0.4,0.8-2.4,3.2-3.4,3.8c-0.4,0.2-0.1-0.9-0.1-0.9     c1.6-1.2,2.7-2.7,3.2-3.4c1-1.4,1.9-2.6,2-2.8L106.4,102.5L106.4,102.5z"></path>
			<path fill="#ED2224" d="M106.1,102.5c-0.1,0-0.1,0-0.2,0c-0.2,0-0.3,0.1-0.5,0.2c-0.2,0-0.4,0.1-0.6,0.1c-0.2,0-0.4,0.1-0.6,0.1     c-0.3,0-0.8,0.1-1,0.1c-0.3,0-0.5-0.1-0.7-0.1s-0.7,0.2-0.9,0.2c0.2-0.2,0.6-0.6,0.8-1c0.3-0.8-1.1-1.7-2-2     c0.6,0.1,0.7-0.6,0.5-1c-0.1-0.1-0.2-0.2-0.2-0.3c-0.1-0.2,0-0.5-0.1-0.6c-0.2-0.1-0.4-0.1-0.5-0.2c-0.2-0.2-0.5-0.7-0.6-0.8     c0.3,0.2,0.8,0.6,1.2,0.7c0.1,0,0.4-0.1,0.5-0.1c0.2,0,0.4,0.2,0.6,0.2s0.4,0.1,0.5,0.1c0-0.1,0.1-0.1,0.1-0.2     c0-0.2-0.1-0.3-0.1-0.5c-0.2-0.8-0.6-1.5-1.1-2.2l-0.1-0.2c0.3,0.1,0.8,0.4,1,0.4c0.6,0,0.8-1.2,0.7-1.6c0-0.2-0.1-0.3-0.2-0.5     l-0.1-0.1c0.2,0.1,0.5,0.3,0.7,0.2c0.9-0.1,0.7-1.7,0.7-2.1c0.3,0.5,0.2,0.8,0.4,1.3c0,0.1,0.5,0.8,0.5,0.8     c-0.1-0.1,0.1,0,0.1,0.1v0.1c0.5,0.7,0.8,0.6,1.2,0.5c0,0.2-0.1,0.5-0.1,0.7c0,0.3,0.2,0.7,0.2,1c0.3,0,0.3,0,0.5-0.1     s0.4-0.1,0.6-0.4c0-0.1,0-0.3,0-0.4c0.1-0.5,0.1-1,0.3-1.5l0.2,0.3c0.2,0.2,0.4,0.1,0.6,0.1c0.5,0,0.7-0.3,1-0.9     c0.2,0.2,0.4,0.2,0.5,0.2c0.3,0,0.8-0.6,1-0.9c0.3-0.4,0,0.1,0,0.4c0,0.1,0,0.1-0.1,0.2c0,0.2,0,0.4,0,0.6c0.1,0.6,0.5,1,0.8,0.6     c-0.6,0.9-0.4,1.1-0.2,1.5c0,0.1,0.1,0.2,0.1,0.3c0.2,0.2,0.7,0,1-0.1c-0.7,0.4-2.3,2.6-1.9,3.1c0.1,0,0.4,0,0.5,0     c0.4-0.1,1-0.3,1.2-0.3c0.2-0.1,0.2-0.1,0.4-0.2l0.2-0.3c0,0-0.2,0.5,0.1,0.6c0.6,0.3,0.7,0.3,1.6-0.1c-0.2,0.7,1.2,0.4,1.8,0.3     c0.3-0.1,1.1-0.2,1.5-0.2c-0.7,0.2-2.3,0.4-2.5,1.4c-0.1,0.3-0.3,0.6,0.6,0.7c-0.2,0-1,0.1-1.2,0.2c-0.5,0.3-0.6,1-0.2,1.4     c0.2,0.2,0.6,0.4,0.8,0.5h-0.3c-0.4,0-0.6-0.2-1-0.2c-0.3,0-0.7,0.2-1,0.1c-0.3-0.1-0.4-0.3-0.6-0.3c-0.4,0.6-0.3,0.9-0.1,1.3     c0,0,0,0.1,0,0.2l0.1,0.1c0.1,0.2,0.1,0.4,0.2,0.5c0.1,0.2,0.4,0.3,0.5,0.5c0,0.1,0,0.2,0,0.3c-0.6-0.2-0.8-0.1-1.2,0.3     c-0.8-0.2-1.7-0.3-1.3,1c-0.6-0.9-2.1-2.3-2.7-0.6c-0.1-0.1-0.1-0.1-0.2-0.2c-0.1-0.2-0.3-0.8-0.4-1c-0.1-0.3-0.2-0.4-0.3-0.7     c0-0.1-0.1-0.3-0.1-0.4c-0.4-0.6-0.6-0.1-0.6,0.4l-0.2-0.3c0-0.1-0.1-0.4-0.1-0.5s0.1-0.3,0.1-0.3     C106.2,102.9,106.1,102.6,106.1,102.5L106.1,102.5L106.1,102.5z"></path>
		</g>
		<g>
			<path fill="#010101" d="M43.3,100.3c0,6.3-5.1,11.3-11.3,11.3c-6.3,0-11.3-5.1-11.3-11.3S25.7,89,32,89     C38.2,89,43.3,94.1,43.3,100.3L43.3,100.3z"></path>
			<path fill="#FFFFFF" d="M37.6,105.3c0,0.1,0,0.2-0.1,0.2c-1,0-2,0-3.1,0c-0.1,0-0.1,0-0.1-0.1l-0.1-3.8c0,0-1.6,1.4-2.2,1.8     c-0.1,0.1-0.1,0.1-0.3,0c-0.7-0.5-2.1-1.8-2.1-1.8l-0.1,3.7c0,0.2,0,0.2-0.2,0.2c-1,0-1.7,0-2.7,0c-0.1,0-0.1,0-0.1-0.1     c0-3.1,0.2-7,0.3-9.9c0-0.2,0.1-0.2,0.2-0.1c1.6,1.2,4.2,3.4,4.9,4c0.7-0.6,3.4-2.8,5-4c0.1-0.1,0.2-0.1,0.2,0.1     C37.3,99.2,37.4,101.7,37.6,105.3L37.6,105.3z"></path>
		</g>
		<g>
			<path fill="#010101" d="M68.6,100.3c0,6.3-5.1,11.3-11.3,11.3c-6.3,0-11.3-5.1-11.3-11.3c-0.1-6.2,5-11.3,11.2-11.3     C63.4,89,68.6,94.1,68.6,100.3L68.6,100.3z"></path>
			<path fill="#FFFFFF" d="M57.5,105.3c-0.1,0.3-0.3,0.3-0.5,0c-1.8-3.2-3.3-5.9-5.3-9.8c-0.1-0.2-0.1-0.3,0.1-0.3h3.7     c0.1,0,0.1,0,0.2,0.1c0.5,1.2,1.7,4,1.7,4s1-2.7,1.4-3.9c0.1-0.1,0.1-0.2,0.2-0.2h3.5c0.2,0,0.2,0,0.1,0.3     C60.5,99.5,59.4,101.7,57.5,105.3L57.5,105.3z"></path>
		</g>
		<g>
			<path fill="#010101" d="M93.7,100.3c0,6.3-5.1,11.3-11.3,11.3c-6.3,0-11.3-5.1-11.3-11.3C70.9,94.1,76,89,82.3,89     C88.5,89,93.7,94.1,93.7,100.3L93.7,100.3z"></path>
			<path fill="#FFFFFF" d="M84.3,101.3l2.9,0.9c0.2,0,0.2,0.1,0.1,0.2c-0.7,1.7-2.4,3.3-4.9,3.3c-3.2,0-5.4-2.1-5.4-5.3     c0-3,2.1-5.3,5.4-5.3c2.6,0,4.1,1.5,4.8,3.1c0.1,0.2,0,0.2-0.1,0.3l-2.9,1c-0.1,0-0.1,0-0.1-0.1c-0.3-0.6-0.8-1-1.7-1     c-1.3,0-2,0.8-2,2s0.8,1.9,2,1.9c0.9,0,1.4-0.4,1.7-1C84.2,101.3,84.2,101.2,84.3,101.3L84.3,101.3z"></path>
		</g>
	</g>
	<g>
		<path fill="#010101" d="M6.7,119.5h1.8v0.8c0.3-0.3,0.7-0.6,1-0.8c0.4-0.2,0.8-0.3,1.3-0.3c0.5,0,0.9,0.1,1.2,0.3    c0.4,0.2,0.7,0.6,0.9,1c0.3-0.4,0.7-0.8,1.1-1s0.9-0.3,1.4-0.3c0.5,0,1,0.1,1.4,0.4c0.4,0.2,0.7,0.6,0.9,1s0.3,1,0.3,1.9v4.3h-1.9    v-3.7c0-0.8-0.1-1.4-0.3-1.7c-0.2-0.3-0.5-0.4-1-0.4c-0.3,0-0.6,0.1-0.8,0.3c-0.3,0.1-0.4,0.4-0.6,0.7c-0.1,0.3-0.2,0.8-0.2,1.5    v3.3h-1.8v-3.6c0-0.7,0-1.1-0.1-1.4c-0.1-0.3-0.2-0.5-0.4-0.7c-0.3-0.1-0.5-0.1-0.8-0.1c-0.3,0-0.6,0.1-0.8,0.3    c-0.3,0.1-0.4,0.4-0.6,0.7c-0.1,0.3-0.2,0.8-0.2,1.6v3.3H6.7V119.5z"></path>
		<path fill="#010101" d="M20,119.5H22v3.5c0,0.7,0,1.2,0.1,1.4c0.1,0.2,0.2,0.5,0.5,0.6c0.2,0.1,0.5,0.2,0.8,0.2    c0.3,0,0.6-0.1,0.8-0.2c0.2-0.1,0.4-0.4,0.5-0.6c0.1-0.2,0.1-0.7,0.1-1.4v-3.6h1.8v3.1c0,1.3-0.1,2.2-0.3,2.6    c-0.2,0.6-0.6,1-1.1,1.3c-0.5,0.3-1.1,0.5-1.8,0.5c-0.8,0-1.5-0.2-2-0.5c-0.5-0.4-0.8-0.9-1-1.5c-0.1-0.4-0.2-1.3-0.2-2.4v-3H20z"></path>
		<path fill="#010101" d="M33.3,120.5l-1.1,1.1c-0.5-0.5-0.9-0.7-1.3-0.7c-0.2,0-0.4,0-0.5,0.1c-0.1,0.1-0.2,0.2-0.2,0.3    s0,0.2,0.1,0.3c0.1,0.1,0.3,0.2,0.5,0.3l0.7,0.3c0.7,0.4,1.2,0.7,1.5,1.1c0.3,0.4,0.4,0.8,0.4,1.3c0,0.7-0.2,1.2-0.7,1.6    s-1.1,0.7-1.9,0.7c-1.1,0-1.9-0.4-2.6-1.3l1.1-1.2c0.2,0.3,0.5,0.5,0.8,0.6c0.3,0.2,0.5,0.2,0.8,0.2c0.2,0,0.4-0.1,0.6-0.2    c0.1-0.1,0.2-0.3,0.2-0.4c0-0.3-0.3-0.6-0.8-0.8l-0.6-0.3c-1.2-0.6-1.8-1.3-1.8-2.2c0-0.6,0.2-1.1,0.7-1.5c0.4-0.4,1-0.6,1.7-0.6    c0.5,0,0.9,0.1,1.3,0.3C32.6,119.8,33,120.1,33.3,120.5z"></path>
		<path fill="#010101" d="M42.5,123.7h-5.9c0.1,0.5,0.3,0.9,0.7,1.2c0.4,0.3,0.8,0.5,1.4,0.5c0.7,0,1.3-0.2,1.8-0.7l1.6,0.7    c-0.4,0.5-0.8,1-1.4,1.2c-0.5,0.3-1.2,0.4-1.9,0.4c-1.2,0-2.1-0.4-2.8-1.1c-0.7-0.7-1.1-1.6-1.1-2.7c0-1.1,0.4-2,1.1-2.8    c0.7-0.7,1.6-1.1,2.7-1.1c1.2,0,2.1,0.4,2.8,1.1c0.7,0.7,1.1,1.7,1.1,2.9L42.5,123.7z M40.7,122.2c-0.1-0.4-0.4-0.7-0.7-1    c-0.4-0.3-0.8-0.4-1.2-0.4c-0.5,0-1,0.1-1.4,0.4c-0.2,0.2-0.5,0.5-0.7,1H40.7z"></path>
		<path fill="#010101" d="M51.8,123.7h-5.9c0.1,0.5,0.3,0.9,0.7,1.2c0.4,0.3,0.8,0.5,1.4,0.5c0.7,0,1.3-0.2,1.8-0.7l1.6,0.7    c-0.4,0.5-0.8,1-1.4,1.2c-0.5,0.3-1.2,0.4-1.9,0.4c-1.2,0-2.1-0.4-2.8-1.1c-0.7-0.7-1.1-1.6-1.1-2.7c0-1.1,0.4-2,1.1-2.8    c0.7-0.7,1.6-1.1,2.7-1.1c1.2,0,2.1,0.4,2.8,1.1c0.7,0.7,1.1,1.7,1.1,2.9L51.8,123.7z M50,122.2c-0.1-0.4-0.4-0.7-0.7-1    c-0.4-0.3-0.8-0.4-1.2-0.4c-0.5,0-1,0.1-1.4,0.4c-0.2,0.2-0.5,0.5-0.7,1H50z"></path>
		<path fill="#010101" d="M52.9,119.5h1.9l1.9,4.3l1.8-4.3h1.9l-3.1,7.3h-1.2L52.9,119.5z"></path>
		<path fill="#010101" d="M62.4,116.5c0.3,0,0.6,0.1,0.8,0.4c0.2,0.2,0.3,0.5,0.3,0.8c0,0.3-0.1,0.6-0.3,0.8    c-0.2,0.2-0.5,0.3-0.8,0.3c-0.3,0-0.6-0.1-0.8-0.4s-0.3-0.5-0.3-0.9c0-0.3,0.1-0.6,0.3-0.8C61.8,116.6,62.1,116.5,62.4,116.5z     M61.5,119.5h1.8v7.3h-1.8V119.5z"></path>
		<path fill="#010101" d="M64.9,119.5h1.6v0.9c0.2-0.4,0.4-0.6,0.7-0.8c0.3-0.2,0.6-0.3,0.9-0.3c0.2,0,0.5,0.1,0.7,0.2l-0.6,1.6    c-0.2-0.1-0.4-0.2-0.5-0.2c-0.3,0-0.5,0.2-0.7,0.5c-0.2,0.4-0.3,1-0.3,2.1v0.4v3h-1.8V119.5z"></path>
		<path fill="#010101" d="M70.5,116.8h1.8v2.7h1.1v1.6h-1.1v5.7h-1.8V121h-0.9v-1.6h0.9C70.5,119.4,70.5,116.8,70.5,116.8z"></path>
		<path fill="#010101" d="M74.7,119.5h1.9v3.5c0,0.7,0,1.2,0.1,1.4c0.1,0.3,0.2,0.5,0.5,0.6c0.2,0.1,0.5,0.2,0.8,0.2    s0.6-0.1,0.8-0.2c0.2-0.1,0.4-0.4,0.5-0.6c0.1-0.2,0.1-0.7,0.1-1.4v-3.6h1.8v3.1c0,1.3-0.1,2.2-0.3,2.6c-0.2,0.6-0.6,1-1.1,1.3    c-0.5,0.3-1.1,0.5-1.8,0.5c-0.8,0-1.5-0.2-2-0.5c-0.5-0.4-0.8-0.9-1-1.5c-0.1-0.4-0.2-1.3-0.2-2.4v-3H74.7z"></path>
		<path fill="#010101" d="M90.8,123.7h-5.9c0.1,0.5,0.3,0.9,0.7,1.2c0.4,0.3,0.8,0.5,1.4,0.5c0.7,0,1.3-0.2,1.8-0.7l1.6,0.7    c-0.4,0.5-0.8,1-1.4,1.2c-0.5,0.3-1.2,0.4-1.9,0.4c-1.2,0-2.1-0.4-2.8-1.1c-0.7-0.7-1.1-1.6-1.1-2.7c0-1.1,0.4-2,1.1-2.8    c0.7-0.7,1.6-1.1,2.7-1.1c1.2,0,2.1,0.4,2.8,1.1c0.7,0.7,1.1,1.7,1.1,2.9L90.8,123.7z M88.9,122.2c-0.1-0.4-0.4-0.7-0.7-1    c-0.4-0.3-0.8-0.4-1.2-0.4c-0.5,0-1,0.1-1.4,0.4c-0.2,0.2-0.5,0.5-0.7,1H88.9z"></path>
		<path fill="#010101" d="M92.4,116.7h1.8v10.2h-1.8V116.7z"></path>
		<path fill="#010101" d="M97.3,124.9c0.3,0,0.5,0.1,0.7,0.3c0.2,0.2,0.3,0.5,0.3,0.7c0,0.3-0.1,0.5-0.3,0.7    c-0.2,0.2-0.5,0.3-0.7,0.3c-0.3,0-0.5-0.1-0.7-0.3c-0.2-0.2-0.3-0.5-0.3-0.7c0-0.3,0.1-0.5,0.3-0.7C96.8,125,97,124.9,97.3,124.9z    "></path>
		<path fill="#010101" d="M107.7,121l-1.6,0.8c-0.3-0.3-0.6-0.5-0.9-0.6s-0.6-0.2-1-0.2c-0.7,0-1.2,0.2-1.7,0.6    c-0.4,0.4-0.6,0.9-0.6,1.6c0,0.6,0.2,1.1,0.6,1.5s0.9,0.6,1.6,0.6c0.8,0,1.5-0.3,1.9-0.8l1.5,1c-0.8,1-1.9,1.5-3.3,1.5    c-1.3,0-2.3-0.4-3-1.1c-0.7-0.8-1.1-1.7-1.1-2.7c0-0.7,0.2-1.4,0.5-2c0.4-0.6,0.9-1.1,1.5-1.4c0.6-0.3,1.3-0.5,2.1-0.5    c0.7,0,1.4,0.1,2,0.4C106.8,120,107.3,120.4,107.7,121z"></path>
		<path fill="#010101" d="M115.2,119.5h1.8v7.3h-1.8V126c-0.4,0.3-0.7,0.6-1.1,0.7c-0.4,0.2-0.8,0.2-1.2,0.2c-0.9,0-1.8-0.4-2.5-1.1    c-0.7-0.7-1-1.6-1-2.7s0.3-2.1,1-2.8s1.5-1.1,2.4-1.1c0.4,0,0.9,0.1,1.2,0.2c0.4,0.2,0.7,0.4,1.1,0.7L115.2,119.5L115.2,119.5z     M113.3,121c-0.6,0-1,0.2-1.4,0.6c-0.4,0.4-0.6,0.9-0.6,1.5c0,0.6,0.2,1.2,0.6,1.6c0.4,0.4,0.9,0.6,1.4,0.6c0.6,0,1.1-0.2,1.4-0.6    c0.4-0.4,0.6-0.9,0.6-1.6c0-0.6-0.2-1.2-0.6-1.6C114.3,121.2,113.8,121,113.3,121z"></path>
	</g>
</g>
</svg>