<svg id="Layer_1" data-name="Layer 1" xmlns="http://www.w3.org/2000/svg" viewBox="0 0 317.09 106.53"><defs><style>.cls-1,.cls-4{fill:#fff;}.cls-2{fill:#010101;}.cls-3{fill:#ed2224;}.cls-4{font-size:35px;font-family:CenturyGothic-Bold, Century Gothic;font-weight:700;letter-spacing:0.03em;}</style></defs><title>vmc_eng_col_rev</title><path class="cls-1" d="M128,28.73A28.73,28.73,0,1,1,99.26,0,28.74,28.74,0,0,1,128,28.73Z"/><path class="cls-2" d="M99.64,41.2c-.33.67-.86.71-1.19.08C93.83,33,90.1,26.25,85,16.41c-.34-.6-.34-.67.22-.67h9.36c.34,0,.34,0,.45.3,1.38,3.09,4.29,10.14,4.29,10.14l3.61-10c.15-.34.15-.45.45-.45h8.88c.55,0,.59,0,.25.67-5.25,10.21-8.16,15.73-12.86,24.79Z"/><path class="cls-1" d="M191.48,28.73A28.74,28.74,0,1,1,162.75,0a28.73,28.73,0,0,1,28.73,28.73Z"/><path class="cls-2" d="M176.48,41.21c0,.3.11.52-.26.52h-7.76c-.3,0-.33-.11-.33-.3l-.34-9.69s-4.14,3.43-5.7,4.66c-.34.26-.34.26-.67,0-1.68-1.34-5.22-4.66-5.22-4.66l-.26,9.43c0,.49-.08.53-.49.53h-6.82c-.38,0-.38.11-.38-.22.08-8,.45-17.64.86-25.1,0-.44.15-.52.52-.26,4.18,3.06,10.63,8.5,12.38,10.07,1.83-1.57,8.5-7.16,12.79-10.25.37-.3.48-.3.52.18.6,9.77.86,16.11,1.16,25.09Z"/><path class="cls-1" d="M255,28.73A28.74,28.74,0,1,1,226.24,0,28.74,28.74,0,0,1,255,28.73Z"/><path class="cls-2" d="M231.46,31.06l7.27,2.24c.41,0,.45.26.33.48a13.51,13.51,0,0,1-12.48,8.43c-8.06,0-13.61-5.41-13.61-13.42,0-7.53,5.44-13.53,13.72-13.53,6.48,0,10.48,3.69,12.15,7.94.15.44,0,.56-.19.63l-7.27,2.65c-.22.07-.26-.08-.33-.23a4.42,4.42,0,0,0-4.4-2.46c-3.21,0-5,2.06-5,5a4.7,4.7,0,0,0,5.07,4.92A4.52,4.52,0,0,0,231,31.33c.11-.27.15-.34.45-.27Z"/><path class="cls-3" d="M287.08,34.11a48.59,48.59,0,0,1-5,7.81c-.95,2-6.08,8.16-8.57,9.72-.9.57-.18-2.3-.31-2.32a34.15,34.15,0,0,0,8.19-8.65c2.46-3.6,4.85-6.72,5-7.13l.7.57Z"/><path class="cls-3" d="M286.44,34.13a2.15,2.15,0,0,0-.51,0,5.85,5.85,0,0,0-1.24.42l-1.63.38c-.51.1-.94.25-1.47.31a20.79,20.79,0,0,1-2.55.2,15.8,15.8,0,0,0-1.85-.3,18.28,18.28,0,0,0-2.35.58,8.21,8.21,0,0,0,2-2.47c.67-2.15-2.91-4.35-5.19-5.1,1.47.3,1.69-1.63,1.26-2.54-.14-.3-.44-.38-.59-.69s0-1.2-.24-1.61-.52-.39-.75-.66a22.61,22.61,0,0,1-1.54-2.11,13.76,13.76,0,0,0,3,1.81c.37.08,1-.2,1.36-.14a9.29,9.29,0,0,1,1.49.6,6.42,6.42,0,0,0,1.32.18c.06-.21.24-.32.31-.53.08-.39-.24-.88-.31-1.23a14.4,14.4,0,0,0-2.74-5.63l-.52-.44a9.52,9.52,0,0,0,2.57.92C277.78,16,278.12,13,278,12a11.79,11.79,0,0,0-.4-1.23s-.28-.25-.27-.26c.56.14,1.33.65,1.81.61,2.16-.2,1.65-4.32,1.8-5.39.67,1.18.54,2.07,1.11,3.29.09.18,1.37,2,1.29,1.92s.26.07.32.15v.25c1.23,1.74,1.92,1.55,3.1,1.24a12.32,12.32,0,0,0-.2,1.86c0,.82.46,1.69.58,2.52a2.26,2.26,0,0,0,1.33-.14c.52-.19,1.12-.23,1.41-1,.06-.19-.11-.7-.06-.93.27-1.26.36-2.56.64-3.74.07.06.42.72.44.73a1.77,1.77,0,0,0,1.49.34c1.32-.09,1.86-.75,2.45-2.24a1.55,1.55,0,0,0,1.3.43c.85,0,1.92-1.49,2.46-2.4.89-1.1,0,.26.1,1,0,.33-.11.25-.19.61a4.36,4.36,0,0,0,.11,1.59c.21,1.62,1.2,2.62,2,1.64-1.53,2.21-1.13,2.69-.53,3.68a2.35,2.35,0,0,0,.35.64c.57.41,1.66.11,2.45-.26-1.89,1-5.95,6.48-4.69,7.76a4.92,4.92,0,0,0,1.33,0c1-.28,2.63-.66,3.06-.85a8.31,8.31,0,0,0,.94-.48l.55-.79s-.46,1.16.36,1.63c1.47.86,1.65.75,4.13-.19-.62,1.68,3,1.14,4.65.86a23.75,23.75,0,0,1,3.82-.46c-1.69.47-5.86,1-6.43,3.52-.18.79-.73,1.45,1.46,1.78a13.72,13.72,0,0,0-3,.62,2.29,2.29,0,0,0-.46,3.52,10.71,10.71,0,0,0,2,1.39l-.88,0c-.9-.08-1.62-.5-2.47-.52s-1.66.48-2.45.31-1-.68-1.55-.76a2.76,2.76,0,0,0-.3,3.29c0,.09,0,.37.06.44l.23.13a8.14,8.14,0,0,0,.48,1.33c.33.51.9.8,1.23,1.32.12.19,0,.51.06.72-1.51-.44-2.11-.28-3.11.7-1.91-.63-4.41-.81-3.33,2.44-1.52-2.4-5.32-5.9-6.84-1.58-.17-.24-.36-.18-.5-.4a24,24,0,0,1-1-2.63c-.27-.65-.53-1.05-.8-1.68a5.39,5.39,0,0,0-.3-.91c-1.11-1.48-1.56-.19-1.51.93l-.42-.71a4.57,4.57,0,0,1-.26-1.25c0-.24.2-.68.18-.88s-.19-1-.22-1.15l-.49-.25Z"/><text class="cls-4" transform="translate(0 95.8)">virtualmuseum.ca</text></svg>