<?xml version="1.0" encoding="utf-8"?>
<!-- Generator: Adobe Illustrator 23.0.6, SVG Export Plug-In . SVG Version: 6.00 Build 0)  -->
<svg version="1.1" id="Layer_1" xmlns="http://www.w3.org/2000/svg" xmlns:xlink="http://www.w3.org/1999/xlink" x="0px" y="0px"
	 viewBox="0 0 284 106.6" style="enable-background:new 0 0 284 106.6;" xml:space="preserve">
<style type="text/css">
	.st0{fill:#FFFFFF;}
	.st1{font-family:'ArialMT';}
	.st2{font-size:35px;}
	.st3{fill:#010101;}
	.st4{fill:#ED2224;}
</style>
<g>
	<g>
		<g>
			<text transform="matrix(1 0 0 1 32 95.8789)" class="st0 st1 st2">museevirtuel.c</text>
			<text transform="matrix(1 0 0 1 260.04 95.8789)" class="st0 st1 st2">a</text>
		</g>
	</g>
	<g>
		<g>
			<path class="st0" d="M94.9,28.7c0,15.9-12.9,28.7-28.7,28.7S37.5,44.6,37.5,28.7C37.5,12.9,50.3,0,66.2,0S94.9,12.9,94.9,28.7
				L94.9,28.7z"/>
			<path class="st3" d="M80.3,41.2c0,0.3,0.1,0.5-0.3,0.5c-2.5,0-5.1,0-7.8,0c-0.3,0-0.3-0.1-0.3-0.3l-0.3-9.7c0,0-4.1,3.4-5.7,4.7
				c-0.3,0.3-0.3,0.3-0.7,0c-1.7-1.3-5.2-4.7-5.2-4.7l-0.3,9.4c0,0.5-0.1,0.5-0.5,0.5c-2.6,0-4.4,0-6.8,0c-0.4,0-0.4,0.1-0.4-0.2
				c0.1-8,0.5-17.6,0.9-25.1c0-0.4,0.2-0.5,0.5-0.3c4.2,3.1,10.6,8.5,12.4,10.1c1.8-1.6,8.5-7.2,12.8-10.2c0.4-0.3,0.5-0.3,0.5,0.2
				C79.7,25.9,80,32.2,80.3,41.2L80.3,41.2z"/>
		</g>
		<g>
			<path class="st4" d="M254,34.2c-0.2,0.3-2,4.1-5,7.8c-0.9,2-6.1,8.2-8.6,9.7c-0.9,0.6-0.2-2.3-0.3-2.3c4.2-3,7-6.8,8.2-8.6
				c2.5-3.6,4.9-6.7,5-7.1L254,34.2L254,34.2z"/>
			<path class="st4" d="M253.4,34.2c-0.3,0-0.2,0-0.5,0c-0.4,0-0.9,0.3-1.2,0.4c-0.5,0.1-1.1,0.2-1.6,0.4c-0.5,0.1-0.9,0.2-1.5,0.3
				c-0.7,0.1-1.9,0.2-2.6,0.2c-0.7-0.1-1.2-0.3-1.8-0.3c-0.6,0-1.8,0.5-2.4,0.6c0.5-0.5,1.6-1.5,1.9-2.5c0.7-2.1-2.9-4.3-5.2-5.1
				c1.5,0.3,1.7-1.6,1.3-2.5c-0.1-0.3-0.4-0.4-0.6-0.7c-0.2-0.5,0-1.2-0.2-1.6c-0.2-0.3-0.5-0.4-0.8-0.7c-0.4-0.4-1.2-1.6-1.6-2.1
				c0.7,0.4,2.1,1.6,3,1.8c0.4,0.1,1-0.2,1.4-0.1c0.6,0.1,0.9,0.4,1.5,0.6c0.4,0.1,1,0.2,1.3,0.2c0.1-0.2,0.2-0.3,0.3-0.5
				c0.1-0.4-0.2-0.9-0.3-1.2c-0.4-2.1-1.4-3.8-2.7-5.6l-0.5-0.4c0.7,0.3,2,0.9,2.6,0.9c1.6-0.1,1.9-3.1,1.8-4.1
				c0-0.4-0.3-0.9-0.4-1.2c0,0-0.3-0.2-0.3-0.3c0.6,0.1,1.3,0.6,1.8,0.6c2.2-0.2,1.6-4.3,1.8-5.4c0.7,1.2,0.5,2.1,1.1,3.3
				c0.1,0.2,1.4,2,1.3,1.9c-0.2-0.1,0.3,0.1,0.3,0.1c0,0,0,0.2,0,0.3c1.2,1.7,1.9,1.6,3.1,1.2c-0.1,0.5-0.2,1.3-0.2,1.9
				c0,0.8,0.5,1.7,0.6,2.5c0.8,0,0.6,0.1,1.3-0.1c0.5-0.2,1.1-0.2,1.4-1c0.1-0.2-0.1-0.7-0.1-0.9c0.3-1.3,0.4-2.6,0.6-3.7
				c0.1,0.1,0.4,0.7,0.4,0.7c0.6,0.5,1.1,0.4,1.5,0.3c1.3-0.1,1.9-0.7,2.5-2.2c0.5,0.5,0.9,0.4,1.3,0.4c0.9,0,1.9-1.5,2.5-2.4
				c0.9-1.1,0,0.3,0.1,1c0,0.3-0.1,0.2-0.2,0.6c-0.1,0.6,0,1.1,0.1,1.6c0.2,1.6,1.2,2.6,2,1.6c-1.5,2.2-1.1,2.7-0.5,3.7
				c0.1,0.2,0.2,0.5,0.4,0.6c0.6,0.4,1.7,0.1,2.5-0.3c-1.9,1-6,6.5-4.7,7.8c0.2,0,1.1,0.1,1.3,0c1-0.3,2.6-0.7,3.1-0.9
				c0.5-0.2,0.5-0.2,0.9-0.5l0.5-0.8c0,0-0.5,1.2,0.4,1.6c1.5,0.9,1.6,0.7,4.1-0.2c-0.6,1.7,3,1.1,4.6,0.9c0.8-0.1,2.9-0.5,3.8-0.5
				c-1.7,0.5-5.9,1-6.4,3.5c-0.2,0.8-0.7,1.5,1.5,1.8c-0.6,0.1-2.5,0.3-3,0.6c-1.3,0.8-1.4,2.6-0.5,3.5c0.4,0.4,1.4,1.1,2,1.4
				c0,0-0.8,0-0.9,0c-0.9-0.1-1.6-0.5-2.5-0.5c-0.8,0-1.7,0.5-2.5,0.3c-0.7-0.2-1-0.7-1.5-0.8c-1.1,1.5-0.7,2.2-0.3,3.3
				c0,0.1,0,0.4,0.1,0.4l0.2,0.1c0.2,0.4,0.2,1,0.5,1.3c0.3,0.5,0.9,0.8,1.2,1.3c0.1,0.2,0,0.5,0.1,0.7c-1.5-0.5-2.1-0.3-3.1,0.7
				c-1.9-0.6-4.4-0.8-3.3,2.4c-1.5-2.4-5.3-5.9-6.8-1.6c-0.2-0.2-0.4-0.2-0.5-0.4c-0.3-0.5-0.8-2-1-2.6c-0.3-0.6-0.5-1-0.8-1.7
				c-0.1-0.2-0.2-0.7-0.3-0.9c-1.1-1.5-1.6-0.2-1.5,0.9l-0.4-0.7c-0.1-0.3-0.3-0.9-0.3-1.3c0-0.2,0.2-0.7,0.2-0.9
				c0-0.2-0.2-1-0.2-1.2L253.4,34.2L253.4,34.2z"/>
		</g>
		<g>
			<path class="st0" d="M158.4,28.7c0,15.9-12.9,28.7-28.7,28.7S101,44.6,101,28.7C101,12.9,113.8,0,129.7,0
				C145.6,0,158.4,12.9,158.4,28.7L158.4,28.7z"/>
			<path class="st3" d="M130.6,41.2c-0.3,0.7-0.9,0.7-1.2,0.1c-4.6-8.2-8.3-15-13.5-24.9c-0.3-0.6-0.3-0.7,0.2-0.7h9.4
				c0.3,0,0.3,0,0.4,0.3c1.4,3.1,4.3,10.1,4.3,10.1s2.5-6.9,3.6-10c0.1-0.3,0.1-0.4,0.4-0.4h8.9c0.6,0,0.6,0,0.3,0.7
				C138.2,26.6,135.3,32.1,130.6,41.2L130.6,41.2z"/>
		</g>
		<g>
			<path class="st0" d="M221.9,28.7c0,15.9-12.9,28.7-28.7,28.7s-28.7-12.9-28.7-28.7c0-15.9,12.9-28.7,28.7-28.7
				S221.9,12.9,221.9,28.7L221.9,28.7z"/>
			<path class="st3" d="M198.4,31.1l7.3,2.2c0.4,0,0.4,0.3,0.3,0.5c-1.9,4.3-6.1,8.4-12.5,8.4c-8.1,0-13.6-5.4-13.6-13.4
				c0-7.5,5.4-13.5,13.7-13.5c6.5,0,10.5,3.7,12.1,7.9c0.1,0.5,0,0.6-0.2,0.6l-7.3,2.6c-0.2,0.1-0.3-0.1-0.3-0.2
				c-0.8-1.5-2-2.5-4.4-2.5c-3.2,0-5,2-5,5s2,4.9,5.1,4.9c2.2,0,3.5-1.1,4.2-2.4C198.1,31.1,198.1,31,198.4,31.1L198.4,31.1z"/>
		</g>
	</g>
</g>
</svg>
