<svg xmlns="http://www.w3.org/2000/svg" xmlns:xlink="http://www.w3.org/1999/xlink" version="1.1" x="0px" y="0px" viewBox="0 176.6 125 38.1" enable-background="new 0 176.6 125 38.1" xml:space="preserve" aria-labelledby="title-logo-mvc-vmc-logo-eng" aria-describedby="desc-logo-mvc-vmc-logo-eng" role="img" id="logo_mvc-vmc_logo-eng" class="injected-svg svg vmc-mvc mvc-vmc-eng" data-src="img/logos/logo_mvc-vmc_logo-eng.svg" data-fallback="img/logos/logo_mvc-vmc_logo-eng.png" data-alt="Virtual Museum of Canada">
<title id="title-logo-mvc-vmc-logo-eng">Virtual Museum of Canada (VMC)</title>
<desc id="desc-logo-mvc-vmc-logo-eng">virtualmuseum.ca</desc>
<g>
	<g>
		<g>
			<g>
				<path fill="#010101" d="M50.4,187.9c0,6.3-5.1,11.3-11.3,11.3c-6.3,0-11.3-5.1-11.3-11.3c0-6.3,5.1-11.3,11.3-11.3      C45.4,176.6,50.4,181.7,50.4,187.9L50.4,187.9z"></path>
				<path fill="#FFFFFF" d="M39.3,192.9c-0.1,0.3-0.3,0.3-0.5,0c-1.8-3.3-3.3-5.9-5.3-9.8c-0.1-0.2-0.1-0.3,0.1-0.3h3.7      c0.1,0,0.1,0,0.2,0.1c0.5,1.2,1.7,4,1.7,4s1-2.7,1.4-3.9c0.1-0.1,0.1-0.2,0.2-0.2h3.5c0.2,0,0.2,0,0.1,0.3      C42.3,187.2,41.1,189.3,39.3,192.9L39.3,192.9z"></path>
			</g>
			<g>
				<path fill="#010101" d="M75.5,187.9c0,6.3-5.1,11.3-11.3,11.3c-6.3,0-11.3-5.1-11.3-11.3c0-6.3,5.1-11.3,11.3-11.3      S75.5,181.7,75.5,187.9L75.5,187.9z"></path>
				<path fill="#FFFFFF" d="M69.6,192.8c0,0.1,0,0.2-0.1,0.2c-1,0-2,0-3.1,0c-0.1,0-0.1,0-0.1-0.1l-0.1-3.8c0,0-1.6,1.4-2.3,1.8      c-0.1,0.1-0.1,0.1-0.3,0c-0.7-0.5-2.1-1.8-2.1-1.8l-0.1,3.7c0,0.2,0,0.2-0.2,0.2c-1,0-1.7,0-2.7,0c-0.1,0-0.1,0-0.1-0.1      c0-3.1,0.2-7,0.3-9.9c0-0.2,0.1-0.2,0.2-0.1c1.6,1.2,4.2,3.4,4.9,4c0.7-0.6,3.4-2.8,5-4c0.1-0.1,0.2-0.1,0.2,0.1      C69.4,186.8,69.5,189.3,69.6,192.8L69.6,192.8z"></path>
			</g>
			<g>
				<path fill="#010101" d="M100.7,187.9c0,6.3-5.1,11.3-11.3,11.3c-6.3,0-11.3-5.1-11.3-11.3c0-6.3,5.1-11.3,11.3-11.3      C95.6,176.6,100.7,181.7,100.7,187.9L100.7,187.9z"></path>
				<path fill="#FFFFFF" d="M91.3,188.8l2.9,0.9c0.2,0,0.2,0.1,0.1,0.2c-0.7,1.7-2.4,3.3-4.9,3.3c-3.2,0-5.4-2.1-5.4-5.3      c0-3,2.1-5.3,5.4-5.3c2.6,0,4.1,1.5,4.8,3.1c0.1,0.2,0,0.2-0.1,0.3l-2.9,1c-0.1,0-0.1,0-0.1-0.1c-0.3-0.6-0.8-1-1.7-1      c-1.3,0-2,0.8-2,2s0.8,1.9,2,1.9c0.9,0,1.4-0.4,1.7-1C91.1,188.8,91.2,188.8,91.3,188.8L91.3,188.8z"></path>
			</g>
		</g>
		<g>
			<path fill="#ED2224" d="M113.3,190c-0.1,0.1-0.8,1.6-2,3.1c-0.4,0.8-2.4,3.2-3.4,3.8c-0.4,0.2-0.1-0.9-0.1-0.9     c1.6-1.2,2.7-2.7,3.2-3.4c1-1.4,1.9-2.7,2-2.8L113.3,190L113.3,190z"></path>
			<path fill="#ED2224" d="M113.1,190.1c-0.1,0-0.1,0-0.2,0c-0.2,0-0.3,0.1-0.5,0.2c-0.2,0-0.4,0.1-0.6,0.1s-0.4,0.1-0.6,0.1     c-0.3,0-0.8,0.1-1,0.1c-0.3,0-0.5-0.1-0.7-0.1s-0.7,0.2-0.9,0.2c0.2-0.2,0.6-0.6,0.8-1c0.3-0.8-1.1-1.7-2-2     c0.6,0.1,0.7-0.6,0.5-1c-0.1-0.1-0.2-0.2-0.2-0.3c-0.1-0.2,0-0.5-0.1-0.6s-0.2-0.2-0.3-0.3c-0.2-0.2-0.5-0.7-0.6-0.8     c0.3,0.2,0.8,0.6,1.2,0.7c0.1,0,0.4-0.1,0.5-0.1c0.2,0,0.4,0.2,0.6,0.2s0.4,0.1,0.5,0.1c0-0.1,0.1-0.1,0.1-0.2     c0-0.2-0.1-0.3-0.1-0.5c-0.2-0.8-0.6-1.5-1.1-2.2l-0.2-0.2c0.3,0.1,0.8,0.4,1,0.4c0.6,0,0.8-1.2,0.7-1.6c0-0.2-0.1-0.3-0.2-0.5     l-0.1-0.1c0.2,0.1,0.5,0.3,0.7,0.2c0.9-0.1,0.7-1.7,0.7-2.1c0.3,0.5,0.2,0.8,0.4,1.3c0,0.1,0.5,0.8,0.5,0.8     c-0.1-0.1,0.1,0,0.1,0.1v0.1c0.5,0.7,0.8,0.6,1.2,0.5c0,0.2-0.1,0.5-0.1,0.7c0,0.3,0.2,0.7,0.2,1c0.3,0,0.3,0,0.5-0.1     s0.4-0.1,0.6-0.4c0-0.1,0-0.3,0-0.4c0.1-0.5,0.1-1,0.3-1.5l0.2,0.3c0.2,0.2,0.4,0.1,0.6,0.1c0.5,0,0.7-0.3,1-0.9     c0.2,0.2,0.4,0.2,0.5,0.2c0.3,0,0.8-0.6,1-0.9c0.3-0.4,0,0.1,0,0.4c0,0.1,0,0.1-0.1,0.2c0,0.2,0,0.4,0,0.6c0.1,0.6,0.5,1,0.8,0.6     c-0.6,0.9-0.4,1.1-0.2,1.5c0,0.1,0.1,0.2,0.1,0.3c0.2,0.2,0.7,0,1-0.1c-0.7,0.4-2.4,2.6-1.9,3.1c0.1,0,0.4,0,0.5,0     c0.4-0.1,1-0.3,1.2-0.3c0.2-0.1,0.2-0.1,0.4-0.2l0.2-0.3c0,0-0.2,0.5,0.1,0.6c0.6,0.3,0.7,0.3,1.6-0.1c-0.2,0.7,1.2,0.4,1.8,0.3     c0.3-0.1,1.1-0.2,1.5-0.2c-0.7,0.2-2.3,0.4-2.5,1.4c-0.1,0.3-0.3,0.6,0.6,0.7c-0.2,0-1,0.1-1.2,0.2c-0.5,0.3-0.6,1-0.2,1.4     c0.2,0.2,0.6,0.4,0.8,0.6h-0.3c-0.4,0-0.6-0.2-1-0.2c-0.3,0-0.7,0.2-1,0.1s-0.4-0.3-0.6-0.3c-0.4,0.6-0.3,0.9-0.1,1.3     c0,0,0,0.1,0,0.2l0.1,0.1c0.1,0.2,0.1,0.4,0.2,0.5c0.1,0.2,0.4,0.3,0.5,0.5c0,0.1,0,0.2,0,0.3c-0.6-0.2-0.8-0.1-1.2,0.3     c-0.8-0.2-1.7-0.3-1.3,1c-0.6-0.9-2.1-2.3-2.7-0.6c-0.1-0.1-0.1-0.1-0.2-0.2c-0.1-0.2-0.3-0.8-0.4-1c-0.1-0.3-0.2-0.4-0.3-0.7     c0-0.1-0.1-0.3-0.1-0.4c-0.4-0.6-0.6-0.1-0.6,0.4l-0.2-0.3c0-0.1-0.1-0.4-0.1-0.5s0.1-0.3,0.1-0.3c0-0.1-0.1-0.4-0.1-0.5     L113.1,190.1L113.1,190.1z"></path>
		</g>
	</g>
	<g>
		<path fill="#010101" d="M0,207.1h1.9l1.9,4.3l1.8-4.3h1.9l-3.1,7.3H3.1L0,207.1z"></path>
		<path fill="#010101" d="M9.6,204c0.3,0,0.6,0.1,0.8,0.4c0.2,0.2,0.3,0.5,0.3,0.8c0,0.3-0.1,0.6-0.3,0.8c-0.2,0.2-0.5,0.3-0.8,0.3    s-0.6-0.1-0.8-0.4c-0.2-0.3-0.3-0.5-0.3-0.9c0-0.3,0.1-0.6,0.3-0.8C9,204.1,9.2,204,9.6,204z M8.6,207.1h1.8v7.3H8.6V207.1z"></path>
		<path fill="#010101" d="M12.1,207.1h1.6v0.9c0.2-0.4,0.4-0.6,0.7-0.8c0.3-0.2,0.6-0.3,0.9-0.3c0.2,0,0.5,0.1,0.7,0.2l-0.6,1.6    c-0.2-0.1-0.4-0.2-0.5-0.2c-0.3,0-0.5,0.2-0.7,0.5c-0.2,0.4-0.3,1-0.3,2.1v0.4v3h-1.8C12.1,214.4,12.1,207.1,12.1,207.1z"></path>
		<path fill="#010101" d="M17.5,204.3h1.8v2.7h1.1v1.6h-1.1v5.8h-1.8v-5.8h-0.9V207h0.9V204.3z"></path>
		<path fill="#010101" d="M21.7,207.1h1.9v3.5c0,0.7,0,1.2,0.1,1.4c0.1,0.3,0.2,0.5,0.5,0.6c0.2,0.1,0.5,0.2,0.8,0.2    s0.6-0.1,0.8-0.2c0.2-0.1,0.4-0.4,0.5-0.6s0.1-0.7,0.1-1.4V207h1.8v3.1c0,1.3-0.1,2.2-0.3,2.6c-0.2,0.6-0.6,1-1.1,1.3    c-0.5,0.3-1.1,0.5-1.8,0.5c-0.8,0-1.5-0.2-2-0.5c-0.5-0.4-0.8-0.9-1-1.5c-0.1-0.4-0.2-1.3-0.2-2.4    C21.7,210.1,21.7,207.1,21.7,207.1z"></path>
		<path fill="#010101" d="M35.9,207.1h1.8v7.3h-1.8v-0.8c-0.4,0.3-0.7,0.6-1.1,0.7c-0.4,0.2-0.8,0.2-1.2,0.2c-0.9,0-1.8-0.4-2.5-1.1    c-0.7-0.7-1-1.6-1-2.7s0.3-2.1,1-2.8s1.5-1.1,2.4-1.1c0.4,0,0.9,0.1,1.2,0.2c0.4,0.2,0.7,0.4,1.1,0.7L35.9,207.1L35.9,207.1z     M34,208.6c-0.6,0-1,0.2-1.4,0.6c-0.4,0.4-0.6,0.9-0.6,1.5c0,0.6,0.2,1.2,0.6,1.6c0.4,0.4,0.9,0.6,1.4,0.6c0.6,0,1.1-0.2,1.4-0.6    c0.3-0.4,0.6-0.9,0.6-1.6c0-0.6-0.2-1.2-0.6-1.6C35,208.8,34.5,208.6,34,208.6z"></path>
		<path fill="#010101" d="M39.7,204.2h1.8v10.2h-1.8V204.2z"></path>
		<path fill="#010101" d="M43.6,207.1h1.8v0.8c0.3-0.3,0.7-0.6,1-0.8c0.4-0.2,0.8-0.3,1.3-0.3c0.5,0,0.9,0.1,1.2,0.3    c0.4,0.2,0.7,0.6,0.9,1c0.3-0.4,0.7-0.8,1.1-1c0.4-0.2,0.9-0.3,1.4-0.3s1,0.1,1.4,0.4c0.4,0.2,0.7,0.6,0.9,1    c0.2,0.4,0.3,1,0.3,1.9v4.3H53v-3.7c0-0.8-0.1-1.4-0.3-1.7c-0.2-0.3-0.5-0.4-0.9-0.4c-0.3,0-0.6,0.1-0.8,0.3    c-0.2,0.2-0.4,0.4-0.6,0.7c-0.1,0.3-0.2,0.8-0.2,1.5v3.3h-1.9v-3.6c0-0.7,0-1.1-0.1-1.4c-0.1-0.3-0.2-0.5-0.4-0.7    c-0.2-0.1-0.4-0.2-0.7-0.2s-0.6,0.1-0.8,0.3c-0.3,0.2-0.4,0.4-0.6,0.8c-0.1,0.3-0.2,0.8-0.2,1.6v3.3h-1.8    C43.6,214.4,43.6,207.1,43.6,207.1z"></path>
		<path fill="#010101" d="M56.9,207.1h1.9v3.5c0,0.7,0,1.2,0.1,1.4c0.1,0.3,0.2,0.5,0.5,0.6c0.2,0.1,0.5,0.2,0.8,0.2    s0.6-0.1,0.8-0.2s0.4-0.4,0.5-0.6s0.1-0.7,0.1-1.4V207h1.8v3.1c0,1.3-0.1,2.2-0.3,2.6c-0.2,0.6-0.6,1-1.1,1.3    c-0.5,0.3-1.1,0.5-1.8,0.5c-0.8,0-1.5-0.2-2-0.5c-0.5-0.4-0.8-0.9-1-1.5c-0.1-0.4-0.2-1.3-0.2-2.4L56.9,207.1L56.9,207.1z"></path>
		<path fill="#010101" d="M70.1,208.1l-1.1,1.1c-0.5-0.5-0.9-0.7-1.3-0.7c-0.2,0-0.4,0-0.5,0.1s-0.2,0.2-0.2,0.3s0,0.2,0.1,0.3    c0.1,0.1,0.3,0.2,0.5,0.3l0.7,0.3c0.7,0.4,1.2,0.7,1.5,1.1c0.3,0.4,0.4,0.8,0.4,1.3c0,0.7-0.2,1.2-0.7,1.6    c-0.5,0.4-1.1,0.7-1.9,0.7c-1.1,0-1.9-0.4-2.6-1.3l1.1-1.2c0.2,0.3,0.5,0.5,0.8,0.6c0.3,0.2,0.5,0.2,0.8,0.2    c0.2,0,0.4-0.1,0.6-0.2c0.1-0.1,0.2-0.3,0.2-0.4c0-0.3-0.3-0.6-0.8-0.8l-0.6-0.3c-1.2-0.6-1.8-1.3-1.8-2.2c0-0.6,0.2-1.1,0.7-1.5    c0.4-0.4,1-0.6,1.7-0.6c0.5,0,0.9,0.1,1.3,0.3C69.4,207.4,69.8,207.7,70.1,208.1z"></path>
		<path fill="#010101" d="M79.3,211.3h-5.9c0.1,0.5,0.3,0.9,0.7,1.2c0.4,0.3,0.8,0.5,1.4,0.5c0.7,0,1.3-0.2,1.8-0.7l1.6,0.7    c-0.4,0.5-0.8,1-1.4,1.2c-0.5,0.3-1.2,0.4-1.9,0.4c-1.2,0-2.1-0.4-2.8-1.1c-0.7-0.7-1.1-1.6-1.1-2.7s0.4-2,1.1-2.8    c0.7-0.7,1.6-1.1,2.7-1.1c1.2,0,2.1,0.4,2.8,1.1c0.7,0.7,1.1,1.7,1.1,2.9L79.3,211.3z M77.5,209.8c-0.1-0.4-0.4-0.7-0.7-1    c-0.4-0.3-0.8-0.4-1.2-0.4c-0.5,0-1,0.1-1.4,0.4c-0.2,0.2-0.5,0.5-0.7,1C73.5,209.8,77.5,209.8,77.5,209.8z"></path>
		<path fill="#010101" d="M81.2,207.1H83v3.5c0,0.7,0,1.2,0.1,1.4c0.1,0.3,0.2,0.5,0.5,0.6c0.2,0.1,0.5,0.2,0.8,0.2s0.6-0.1,0.8-0.2    c0.2-0.1,0.4-0.4,0.5-0.6s0.1-0.7,0.1-1.4V207h1.8v3.1c0,1.3-0.1,2.2-0.3,2.6c-0.2,0.6-0.6,1-1.1,1.3c-0.5,0.3-1.1,0.5-1.8,0.5    c-0.8,0-1.5-0.2-2-0.5c-0.5-0.4-0.8-0.9-1-1.5c-0.1-0.4-0.2-1.3-0.2-2.4C81.2,210.1,81.2,207.1,81.2,207.1z"></path>
		<path fill="#010101" d="M89.8,207.1h1.8v0.8c0.3-0.3,0.7-0.6,1-0.8c0.4-0.2,0.8-0.3,1.3-0.3s0.9,0.1,1.2,0.3    c0.4,0.2,0.7,0.6,0.9,1c0.3-0.4,0.7-0.8,1.1-1s0.9-0.3,1.4-0.3s1,0.1,1.4,0.4c0.4,0.2,0.7,0.6,0.9,1c0.2,0.4,0.3,1,0.3,1.9v4.3    h-1.9v-3.7c0-0.8-0.1-1.4-0.3-1.7c-0.2-0.3-0.5-0.4-0.9-0.4c-0.3,0-0.6,0.1-0.8,0.3c-0.2,0.2-0.4,0.4-0.6,0.7    c-0.1,0.3-0.2,0.8-0.2,1.5v3.3h-1.9v-3.6c0-0.7,0-1.1-0.1-1.4c-0.1-0.3-0.2-0.5-0.4-0.7c-0.2-0.1-0.4-0.2-0.7-0.2    c-0.3,0-0.6,0.1-0.8,0.3c-0.3,0.2-0.4,0.4-0.6,0.8c-0.1,0.3-0.2,0.8-0.2,1.6v3.3h-1.8L89.8,207.1L89.8,207.1z"></path>
		<path fill="#010101" d="M104.2,212.5c0.3,0,0.5,0.1,0.7,0.3s0.3,0.5,0.3,0.7s-0.1,0.5-0.3,0.7c-0.2,0.2-0.5,0.3-0.7,0.3    s-0.5-0.1-0.7-0.3c-0.2-0.2-0.3-0.5-0.3-0.7s0.1-0.5,0.3-0.7C103.7,212.6,104,212.5,104.2,212.5z"></path>
		<path fill="#010101" d="M114.6,208.5l-1.5,0.8c-0.3-0.3-0.6-0.5-0.9-0.6s-0.6-0.2-1-0.2c-0.7,0-1.2,0.2-1.7,0.6    c-0.4,0.4-0.6,0.9-0.6,1.6c0,0.6,0.2,1.1,0.6,1.5c0.4,0.4,0.9,0.6,1.6,0.6c0.8,0,1.5-0.3,1.9-0.8l1.5,1c-0.8,1-1.9,1.5-3.3,1.5    c-1.3,0-2.3-0.4-3-1.1c-0.7-0.8-1.1-1.7-1.1-2.7c0-0.7,0.2-1.4,0.5-2c0.4-0.6,0.9-1.1,1.5-1.4c0.6-0.3,1.3-0.5,2.1-0.5    c0.7,0,1.4,0.1,2,0.4C113.8,207.6,114.3,208,114.6,208.5z"></path>
		<path fill="#010101" d="M122.1,207.1h1.8v7.3h-1.8v-0.8c-0.4,0.3-0.7,0.6-1.1,0.7c-0.4,0.2-0.8,0.2-1.2,0.2    c-0.9,0-1.8-0.4-2.5-1.1c-0.7-0.7-1-1.6-1-2.7s0.3-2.1,1-2.8s1.5-1.1,2.4-1.1c0.4,0,0.9,0.1,1.2,0.2c0.4,0.2,0.7,0.4,1.1,0.7    L122.1,207.1L122.1,207.1z M120.1,208.6c-0.6,0-1,0.2-1.4,0.6c-0.4,0.4-0.6,0.9-0.6,1.5c0,0.6,0.2,1.2,0.6,1.6    c0.4,0.4,0.9,0.6,1.4,0.6c0.6,0,1.1-0.2,1.4-0.6c0.4-0.4,0.6-0.9,0.6-1.6c0-0.6-0.2-1.2-0.6-1.6    C121.2,208.8,120.7,208.6,120.1,208.6z"></path>
	</g>
</g>
</svg>