<?xml version="1.0" encoding="UTF-8"?>
<svg width="164px" height="50px" viewBox="0 0 164 50" version="1.1" xmlns="http://www.w3.org/2000/svg" xmlns:xlink="http://www.w3.org/1999/xlink">
    <!-- Generator: Sketch 49 (51002) - http://www.bohemiancoding.com/sketch -->
    <title>mvcvmc_logo-inverted-en</title>
    <desc>Created with Sketch.</desc>
    <defs></defs>
    <g id="Page-1" stroke="none" stroke-width="1" fill="none" fill-rule="evenodd">
        <g id="mvcvmc_logo-inverted-en" fill="#FFFFFF" fill-rule="nonzero">
            <path d="M51.207,0.07 C42.9903685,0.0727615031 36.3316078,6.73570075 36.3340009,14.9523324 C36.336394,23.1689641 42.9990347,29.8280234 51.2156665,29.8259987 C59.4322983,29.823974 66.0916563,23.1616318 66.09,14.945 C66.0905316,10.9983554 64.5224209,7.21331942 61.7309716,4.42337058 C58.9395223,1.63342173 55.1536437,0.0673464009 51.207,0.07 Z M58.065,8.682 C55.342,13.972 53.837,16.828 51.405,21.519 C51.23,21.859 50.96,21.879 50.785,21.559 C48.393,17.289 46.462,13.779 43.818,8.679 C43.643,8.369 43.643,8.329 43.932,8.329 L48.778,8.329 C48.951,8.329 48.951,8.349 49.01,8.479 C49.724,10.079 51.23,13.729 51.23,13.729 L53.103,8.549 C53.18,8.369 53.18,8.319 53.333,8.319 L57.93,8.319 C58.22,8.319 58.24,8.339 58.065,8.659 L58.065,8.682 Z M84.082,0.07 C75.8651076,0.0711046437 69.2048957,6.73310751 69.2060003,14.9499999 C69.2071049,23.1668923 75.8691077,29.8271043 84.0860001,29.8259997 C92.3028925,29.8248952 98.9631045,23.1628924 98.962,14.946 C98.9597913,6.72956506 92.2984352,0.0699997031 84.082,0.07 Z M91.057,21.625 L87.04,21.625 C86.887,21.625 86.867,21.565 86.867,21.469 L86.693,16.449 C86.693,16.449 84.549,18.219 83.74,18.859 C83.566,18.989 83.566,18.989 83.392,18.859 C82.522,18.159 80.689,16.439 80.689,16.439 L80.549,21.319 C80.549,21.569 80.509,21.589 80.299,21.589 L76.769,21.589 C76.569,21.589 76.569,21.649 76.569,21.469 C76.609,17.339 76.799,12.339 77.009,8.479 C77.029,8.249 77.089,8.209 77.279,8.339 C79.439,9.919 82.779,12.739 83.689,13.549 C84.629,12.739 88.089,9.839 90.309,8.239 C90.499,8.079 90.559,8.079 90.579,8.329 C90.889,13.389 91.019,16.669 91.179,21.319 C91.179,21.469 91.229,21.589 91.039,21.589 L91.057,21.625 Z M116.957,0.07 C108.740108,0.0711046437 102.079896,6.73310751 102.081,14.9499999 C102.082105,23.1668923 108.744108,29.8271043 116.961,29.8259997 C125.177892,29.8248952 131.838104,23.1628924 131.837,14.946 C131.834791,6.72956506 125.173435,0.0699997031 116.957,0.07 Z M123.6,17.56 C122.529003,20.1922872 119.973813,21.916685 117.132,21.925 C115.247571,22.0388715 113.403514,21.3466731 112.059466,20.0209376 C110.715418,18.6952021 109.997989,16.8608137 110.086,14.975 C110.032165,13.0835193 110.766596,11.2546943 112.113688,9.9258068 C113.460779,8.59691927 115.299427,7.88743666 117.19,7.967 C119.952886,7.84422393 122.486029,9.49811047 123.485,12.077 C123.563,12.309 123.485,12.367 123.387,12.407 L119.623,13.777 C119.506,13.817 119.488,13.74 119.45,13.662 C119.030363,12.8042055 118.122482,12.2968605 117.172,12.389 C116.470212,12.3349484 115.78024,12.5927323 115.285818,13.0937056 C114.791396,13.5946788 114.542716,14.2879847 114.606,14.989 C114.570032,15.6890335 114.837733,16.3705675 115.340515,16.8589843 C115.843297,17.347401 116.532303,17.5952394 117.231,17.539 C118.14804,17.5870628 119.008428,17.0942952 119.431,16.279 C119.491,16.139 119.511,16.099 119.671,16.139 L123.441,17.289 C123.661,17.309 123.671,17.419 123.621,17.539 L123.6,17.56 Z" id="Shape"></path>
            <path d="M148.462,17.742 C147.724801,19.1689753 146.854256,20.5230078 145.862,21.786 C144.673131,23.6998962 143.172412,25.4013862 141.422,26.82 C140.96,27.114 141.332,25.626 141.264,25.615 C142.929456,24.383441 144.364755,22.8679143 145.504,21.138 C146.777,19.275 148.014,17.658 148.102,17.443 L148.462,17.743 L148.462,17.742 Z" id="Shape"></path>
            <path d="M148.128,17.753 C148.040463,17.7466716 147.952481,17.7510371 147.866,17.766 C147.644723,17.8169901 147.429509,17.8914101 147.224,17.988 C146.972,18.048 146.642,18.118 146.378,18.181 C146.114,18.241 145.896,18.311 145.621,18.351 C145.183403,18.4107715 144.742607,18.4441651 144.301,18.451 C143.987706,18.3815806 143.670441,18.3314861 143.351,18.301 C142.938134,18.3781896 142.530634,18.4817348 142.131,18.611 C142.545969,18.2524128 142.888757,17.8179883 143.141,17.331 C143.491,16.221 141.631,15.081 140.451,14.691 C141.221,14.851 141.331,13.851 141.101,13.381 C141.031,13.221 140.881,13.191 140.801,13.021 C140.681,12.791 140.811,12.411 140.681,12.191 C140.601,12.041 140.411,11.991 140.291,11.851 C140.004043,11.5030034 139.736952,11.1390916 139.491,10.761 C139.961505,11.1396374 140.479162,11.4556097 141.031,11.701 C141.221,11.751 141.541,11.601 141.741,11.631 C142.005815,11.712813 142.263369,11.8165036 142.511,11.941 C142.736749,11.9989787 142.96808,12.0325049 143.201,12.041 C143.231,11.931 143.331,11.881 143.361,11.771 C143.411,11.571 143.241,11.321 143.201,11.141 C142.950189,10.0773888 142.465053,9.08320083 141.781,8.231 L141.511,8.001 C141.929396,8.22310781 142.377193,8.38471888 142.841,8.481 C143.661,8.441 143.841,6.881 143.781,6.351 C143.724112,6.13358511 143.653982,5.91985281 143.571,5.711 C143.591,5.711 143.431,5.581 143.431,5.571 C143.721,5.648 144.121,5.909 144.371,5.888 C145.491,5.782 145.231,3.648 145.311,3.092 C145.661,3.702 145.591,4.162 145.891,4.797 C145.941,4.887 146.601,5.825 146.561,5.794 C146.481,5.729 146.701,5.831 146.731,5.87 L146.731,6 C147.361,6.9 147.721,6.8 148.331,6.64 C148.274675,6.95718604 148.241256,7.27801509 148.231,7.6 C148.251,8.026 148.471,8.48 148.531,8.91 C148.763234,8.95467925 149.003522,8.92890919 149.221,8.836 C149.491,8.746 149.801,8.724 149.951,8.303 C149.981,8.203 149.896,7.943 149.919,7.823 C150.064,7.173 150.109,6.499 150.256,5.891 C150.296,5.921 150.476,6.261 150.482,6.267 C150.700294,6.43931444 150.984362,6.50464272 151.256,6.445 C151.936,6.405 152.216,6.055 152.526,5.285 C152.702143,5.45988823 152.95047,5.54142832 153.196,5.505 C153.636,5.525 154.19,4.735 154.469,4.265 C154.929,3.695 154.469,4.405 154.519,4.785 C154.529,4.948 154.459,4.915 154.419,5.095 C154.388732,5.37069842 154.409065,5.6496068 154.479,5.918 C154.589,6.758 155.099,7.271 155.539,6.761 C154.749,7.911 154.959,8.157 155.269,8.671 C155.31328,8.78988214 155.375684,8.90119855 155.454,9.001 C155.754,9.211 156.314,9.061 156.724,8.867 C155.744,9.397 153.644,12.222 154.294,12.887 C154.52189,12.9257357 154.753904,12.934142 154.984,12.912 C155.501,12.768 156.349,12.572 156.57,12.472 C156.736409,12.3988841 156.898061,12.3153863 157.054,12.222 L157.334,11.812 C157.344,11.832 157.094,12.418 157.52,12.662 C158.29,13.112 158.38,13.048 159.66,12.562 C159.34,13.432 161.24,13.152 162.07,13.007 C162.722709,12.8753484 163.38474,12.7951023 164.05,12.767 C163.18,13.011 161.02,13.267 160.73,14.587 C160.638,14.997 160.35,15.337 161.49,15.507 C160.958216,15.5539955 160.433507,15.6613529 159.926,15.827 C159.623021,16.0138427 159.420181,16.3270827 159.373644,16.679986 C159.327107,17.0328893 159.441813,17.3880036 159.686,17.647 C160.006463,17.9302838 160.358839,18.1752685 160.736,18.377 L160.276,18.397 C159.816,18.357 159.436,18.137 159.006,18.127 C158.616,18.107 158.142,18.377 157.736,18.287 C157.376,18.207 157.226,17.937 156.93,17.887 C156.506367,18.3604065 156.444138,19.0559072 156.777,19.597 C156.795,19.64 156.775,19.787 156.807,19.827 L156.927,19.887 C156.989145,20.122827 157.069383,20.3535108 157.167,20.577 C157.337,20.837 157.637,20.987 157.807,21.257 C157.877,21.357 157.797,21.522 157.847,21.633 C157.292679,21.3575643 156.621219,21.5077044 156.237,21.993 C155.245,21.668 153.947,21.573 154.507,23.253 C153.717,22.009 151.757,20.199 150.967,22.433 C150.877,22.313 150.783,22.34 150.707,22.223 C150.505516,21.7797335 150.328582,21.3257135 150.177,20.863 C150.037,20.533 149.907,20.323 149.767,20.001 C149.728459,19.8396812 149.674891,19.6823273 149.607,19.531 C149.037,18.761 148.8,19.431 148.827,20.011 L148.607,19.643 C148.532165,19.4333721 148.485098,19.2148483 148.467,18.993 C148.505836,18.8413556 148.536876,18.687821 148.56,18.533 C148.547,18.443 148.46,18.023 148.45,17.933 L148.2,17.798 L148.128,17.753 Z" id="Shape"></path>
            <path d="M0,40.056 L2.46,40.056 L4.894,45.736 L7.321,40.056 L9.771,40.056 L5.681,49.684 L4.11,49.684 L0,40.056 Z M12.577,36.092 C12.9886755,36.0861498 13.383986,36.2529781 13.667,36.552 C13.9643422,36.8460105 14.1283925,37.2489092 14.121,37.667 C14.1282205,38.0804543 13.965565,38.4787794 13.671,38.769 C13.3918526,39.0604312 13.0045303,39.2233237 12.601,39.219 C12.1845345,39.2240916 11.7851997,39.0534667 11.501,38.749 C11.2039957,38.4489249 11.0415874,38.0410996 11.051,37.619 C11.051,36.7684815 11.7404815,36.079 12.591,36.079 L12.577,36.092 Z M11.369,40.056 L13.779,40.056 L13.779,49.684 L11.369,49.684 L11.369,40.056 Z M15.859,40.056 L17.929,40.056 L17.929,41.269 C18.1189359,40.830218 18.4270648,40.4528467 18.819,40.179 C19.1779252,39.9319639 19.6032777,39.799477 20.039,39.799 C20.3803438,39.8073341 20.7153767,39.8928017 21.019,40.049 L20.269,42.129 C20.0553054,42.0036759 19.8159677,41.9284554 19.569,41.909 C19.1497654,41.9410394 18.7852107,42.2086381 18.629,42.599 C18.3040859,43.4599005 18.1709886,44.3813436 18.239,45.299 L18.249,45.769 L18.249,49.659 L15.849,49.659 L15.849,40.029 L15.859,40.056 Z M22.969,36.506 L25.379,36.506 L25.379,40.056 L26.809,40.056 L26.809,42.136 L25.379,42.136 L25.379,49.683 L22.969,49.683 L22.969,42.136 L21.729,42.136 L21.729,40.056 L22.969,40.056 L22.969,36.506 Z M28.549,40.056 L31,40.056 L31,44.693 C30.9690888,45.3255222 31.032449,45.959124 31.188,46.573 C31.2963971,46.9028316 31.5064318,47.189879 31.788,47.393 C32.0875729,47.5936663 32.4426333,47.6951121 32.803,47.683 C33.1660443,47.6949617 33.5239542,47.594747 33.828,47.396 C34.121246,47.1883256 34.3402762,46.8921967 34.453,46.551 C34.5842157,45.9707142 34.6346922,45.3750915 34.603,44.781 L34.603,40.061 L37.02,40.061 L37.02,44.141 C37.089197,45.3054009 36.9545069,46.4729406 36.622,47.591 C36.3330869,48.3039395 35.8326144,48.9112074 35.188,49.331 C34.4610889,49.7617344 33.625318,49.9735417 32.781,49.941 C31.8749755,49.9855128 30.9783168,49.7403327 30.221,49.241 C29.5605719,48.7524196 29.0791707,48.0601857 28.851,47.271 C28.6150564,46.2250312 28.5208787,45.152078 28.571,44.081 L28.571,40.071 L28.549,40.056 Z M46.989,40.056 L49.399,40.056 L49.399,49.684 L47,49.684 L47,48.667 C46.5891754,49.0729759 46.1080348,49.4009647 45.58,49.635 C45.0914625,49.8352159 44.5679563,49.9361778 44.04,49.932 C42.8056669,49.9367931 41.6292204,49.4090686 40.812,48.484 C39.9017824,47.5110315 39.4129493,46.2177803 39.452,44.886 C39.3991245,43.5432589 39.871131,42.2326876 40.768,41.232 C41.5760033,40.3134414 42.7447237,39.7933609 43.968,39.808 C44.5271556,39.8039002 45.0811079,39.9155759 45.595,40.136 C46.1227887,40.3683899 46.600326,40.7012395 47.001,41.116 L46.989,40.056 Z M44.449,42.039 C43.7439649,42.0211497 43.0656924,42.3092333 42.589,42.829 C42.0818215,43.3807384 41.812374,44.1100431 41.839,44.859 C41.8108567,45.6141889 42.0801548,46.3502704 42.589,46.909 C43.0621855,47.4289396 43.7360684,47.7203484 44.439,47.709 C45.1497083,47.7261184 45.8338429,47.4386363 46.319,46.919 C46.8344475,46.3522625 47.1041555,45.6042722 47.069,44.839 C47.1027521,44.0859274 46.8325114,43.3508728 46.319,42.799 C45.8256754,42.2802426 45.1345224,41.9965062 44.419,42.019 L44.449,42.039 Z M52.029,36.339 L54.439,36.339 L54.439,49.679 L52.029,49.679 L52.029,36.339 Z M57.069,40.049 L59.489,40.049 L59.489,41.149 C59.869904,40.7175784 60.3364746,40.3702046 60.859,40.129 C61.3788683,39.9005744 61.9411771,39.7847047 62.509,39.789 C63.0794719,39.7816766 63.6406171,39.9340864 64.129,40.229 C64.6311003,40.5421577 65.0361982,40.9888041 65.299,41.519 C65.6549986,40.9789368 66.1394842,40.535684 66.709,40.229 C67.2730843,39.9328747 67.901954,39.781671 68.539,39.789 C69.1721303,39.7771228 69.7958508,39.9434483 70.339,40.269 C70.8314887,40.5566803 71.2227579,40.9898712 71.459,41.509 C71.7303461,42.3131147 71.8457435,43.1616251 71.799,44.009 L71.799,49.649 L69.399,49.649 L69.399,44.769 C69.4713203,44.0063393 69.332963,43.2384565 68.999,42.549 C68.7199352,42.1577728 68.2585854,41.9384426 67.779,41.969 C67.3809812,41.9632101 66.99171,42.0859533 66.669,42.319 C66.3334683,42.5656456 66.079267,42.9069021 65.939,43.299 C65.7479286,43.9475976 65.666807,44.6236106 65.699,45.299 L65.699,49.649 L63.269,49.649 L63.269,45 C63.2955094,44.3707853 63.231523,43.7410243 63.079,43.13 C62.9798605,42.7899667 62.7771079,42.4893336 62.499,42.27 C62.2318555,42.0766345 61.9086894,41.976172 61.579,41.984 C61.1830082,41.9816174 60.7969624,42.1079596 60.479,42.344 C60.137158,42.5993639 59.879459,42.9510882 59.739,43.354 C59.5441656,44.0135674 59.460356,44.7009406 59.491,45.388 L59.491,49.668 L57.081,49.668 L57.081,40.038 L57.069,40.049 Z M74.559,40.049 L77,40.049 L77,44.679 C76.9697534,45.3115051 77.0331038,45.9450091 77.188,46.559 C77.2950663,46.8881539 77.5032902,47.1751179 77.783,47.379 C78.0824284,47.5799776 78.4375915,47.6814527 78.798,47.669 C79.1620962,47.6809493 79.5209292,47.5796235 79.825,47.379 C80.1191029,47.1700297 80.3382196,46.872031 80.45,46.529 C80.5821372,45.945468 80.6326191,45.346416 80.6,44.749 L80.6,40.039 L83.018,40.039 L83.018,44.119 C83.0858932,45.283499 82.9505391,46.4509279 82.618,47.569 C82.3277701,48.2829332 81.8250601,48.8903745 81.178,49.309 C80.4503226,49.7360549 79.6149944,49.9443662 78.772,49.909 C77.8648795,49.950563 76.9681296,49.701855 76.212,49.199 C75.5458355,48.7096341 75.0605571,48.0133651 74.832,47.219 C74.5947133,46.173213 74.49919,45.1002577 74.548,44.029 L74.548,40.019 L74.559,40.049 Z M91.8,41.4 L90.303,42.9 C89.8894442,42.393936 89.2959067,42.0677772 88.647,41.99 C88.4208641,41.9756424 88.1962034,42.0353179 88.007,42.16 C87.8628931,42.2555284 87.7764676,42.4171064 87.777,42.59 C87.7775997,42.7244949 87.8302875,42.8535261 87.924,42.95 C88.1409183,43.133515 88.3852034,43.2819756 88.648,43.39 L89.533,43.83 C90.2725185,44.1440079 90.9295746,44.6244802 91.453,45.234 C92.2850925,46.43498 92.1059818,48.065314 91.033,49.057 C90.3314813,49.6559979 89.427273,49.9637221 88.506,49.917 C87.1824445,49.9546883 85.9254081,49.3373937 85.146,48.267 L86.629,46.647 C86.9058656,46.9734377 87.2417151,47.2448313 87.619,47.447 C87.9285763,47.6320938 88.2787834,47.7385293 88.639,47.757 C88.914276,47.7694927 89.1856737,47.6884259 89.409,47.527 C89.5848458,47.4068615 89.6926326,47.209872 89.699,46.997 C89.699,46.6236667 89.349,46.2603333 88.649,45.907 L87.839,45.502 C86.279,44.7153333 85.499,43.7326667 85.499,42.554 C85.4936545,41.8067136 85.8151089,41.0944001 86.379,40.604 C86.9961417,40.0533779 87.8025056,39.7630869 88.629,39.794 C89.875836,39.7888307 91.0501031,40.3796803 91.789,41.384 L91.8,41.4 Z M104,45.57 L96.24,45.57 C96.3259424,46.2061907 96.6461576,46.7874278 97.138,47.2 C97.664956,47.6192928 98.3251292,47.8350913 98.998,47.808 C99.8708876,47.8210193 100.711697,47.4792825 101.328,46.861 L103.363,47.821 C102.901255,48.5006569 102.273821,49.0513399 101.54,49.421 C100.750726,49.7844805 99.8886863,49.9623616 99.02,49.941 C97.6453992,49.9937691 96.3100707,49.4762841 95.33,48.511 C94.3821643,47.5648163 93.8663059,46.2697439 93.904,44.931 C93.8620487,43.569023 94.3744603,42.2483002 95.324,41.271 C96.2554854,40.3089689 97.5484529,39.7827823 98.887,39.821 C100.270303,39.7684389 101.612326,40.2979938 102.587,41.281 C103.563501,42.31851 104.077347,43.7077717 104.011,45.131 L104,45.57 Z M101.584,43.666 C101.428006,43.1341575 101.095382,42.6713757 100.641,42.354 C100.164905,42.017417 99.5939743,41.8412341 99.011,41.851 C98.3743164,41.840816 97.7520933,42.0411929 97.241,42.421 C96.8496013,42.7592 96.5473917,43.188475 96.361,43.671 L101.601,43.671 L101.584,43.666 Z M106.4,40.056 L108.84,40.056 L108.84,44.693 C108.809067,45.3256393 108.873112,45.9593425 109.03,46.573 C109.137865,46.90256 109.347175,47.189574 109.628,47.393 C109.927399,47.59404 110.282583,47.6955211 110.643,47.683 C111.005762,47.6952125 111.363427,47.5949684 111.667,47.396 C111.960546,47.1886319 112.179657,46.8923938 112.292,46.551 C112.423216,45.9707142 112.473692,45.3750915 112.442,44.781 L112.442,40.061 L114.859,40.061 L114.859,44.141 C114.927549,45.3055177 114.792182,46.4730598 114.459,47.591 C114.16922,48.3052021 113.666408,48.9127663 113.019,49.331 C112.291266,49.7624023 111.45434,49.9742384 110.609,49.941 C109.702945,49.9857928 108.806201,49.7405893 108.049,49.241 C107.385333,48.7535131 106.900419,48.0612806 106.669,47.271 C106.429698,46.2254859 106.332157,45.1525273 106.379,44.081 L106.379,40.071 L106.4,40.056 Z M117.72,40.056 L120.137,40.056 L120.137,41.16 C120.519937,40.7282994 120.988994,40.381531 121.514,40.142 C122.034113,39.9147746 122.596447,39.8002628 123.164,39.806 C123.738079,39.7971856 124.303016,39.9503771 124.794,40.248 C125.295801,40.5623908 125.700759,41.0095757 125.964,41.54 C126.320304,40.9989569 126.805521,40.5549764 127.376,40.248 C127.939247,39.9513451 128.56744,39.7994518 129.204,39.806 C129.839564,39.7926607 130.466072,39.9582973 131.012,40.284 C131.505603,40.5739313 131.896965,41.0100206 132.132,41.532 C132.404734,42.3378605 132.520158,43.1886026 132.472,44.038 L132.472,49.684 L130.038,49.684 L130.038,44.798 C130.107594,44.0356873 129.966823,43.2688857 129.631,42.581 C129.351554,42.1902282 128.890473,41.9710259 128.411,42.001 C128.011852,41.9981101 127.622474,42.1243947 127.301,42.361 C126.965468,42.6076456 126.711267,42.9489021 126.571,43.341 C126.379925,43.9930214 126.298815,44.6723208 126.331,45.351 L126.331,49.701 L123.901,49.701 L123.901,45.031 C123.92762,44.401782 123.863632,43.7720052 123.711,43.161 C123.614558,42.8222625 123.415404,42.521786 123.141,42.301 C122.873108,42.1097654 122.550006,42.0114299 122.221,42.021 C121.828345,42.0202773 121.445987,42.146561 121.131,42.381 C120.792243,42.6371904 120.537984,42.9889732 120.401,43.391 C120.208314,44.052963 120.127205,44.7423921 120.161,45.431 L120.161,49.711 L117.751,49.711 L117.751,40.081 L117.72,40.056 Z M136.544,47.161 C136.913109,47.15729 137.267497,47.3055544 137.524,47.571 C137.923223,47.9678946 138.043637,48.5663948 137.828969,49.0868002 C137.614301,49.6072056 137.106942,49.9467484 136.544,49.9467484 C135.981058,49.9467484 135.473699,49.6072056 135.259031,49.0868002 C135.044363,48.5663948 135.164777,47.9678946 135.564,47.571 C135.822199,47.3092285 136.176371,47.1646688 136.544,47.171 L136.544,47.161 Z M150.174,42.011 L148.164,43.121 C147.564612,42.4135755 146.670089,42.0254564 145.744,42.071 C144.934278,42.0361392 144.144488,42.3279868 143.552,42.881 C142.993682,43.422166 142.689735,44.1738634 142.715,44.951 C142.686945,45.7050979 142.980264,46.4356692 143.522,46.961 C144.094186,47.4949067 144.857191,47.7760326 145.639,47.741 C146.605136,47.7904352 147.538364,47.3830741 148.159,46.641 L150.059,47.951 C149.026028,49.1367668 147.560461,49.8584657 145.990785,49.9543381 C144.421109,50.0502106 142.878604,49.5122382 141.709,48.461 C140.592037,47.3361076 140.07402,45.748569 140.312548,44.1813766 C140.551077,42.6141841 141.517948,41.2526474 142.919,40.511 C143.781645,40.0570994 144.744332,39.8267422 145.719,39.841 C146.608468,39.8272735 147.48874,40.022509 148.289,40.411 C149.037493,40.7828175 149.677951,41.3406358 150.149,42.031 L150.174,42.011 Z M159.91,40.071 L162.326,40.071 L162.326,49.701 L159.91,49.701 L159.91,48.681 C159.499824,49.087354 159.019392,49.4159991 158.492,49.651 C158.002671,49.8524029 157.478145,49.9543846 156.949,49.951 C155.715313,49.9580039 154.538382,49.4333039 153.719,48.511 C152.808758,47.5372422 152.319963,46.2433744 152.359,44.911 C152.305114,43.5703816 152.774917,42.2613884 153.669,41.261 C154.477339,40.3433729 155.646223,39.8246806 156.869,39.841 C157.425941,39.8384968 157.977418,39.9508347 158.489,40.171 C159.014975,40.4034829 159.490528,40.7363704 159.889,41.151 L159.889,40.091 L159.91,40.071 Z M157.37,42.061 C156.664965,42.0431497 155.986692,42.3312333 155.51,42.851 C155.006451,43.4043111 154.740662,44.1334348 154.77,44.881 C154.739741,45.6402463 155.010756,46.3806864 155.524,46.941 C155.996213,47.4663983 156.672663,47.7617753 157.379,47.751 C158.089708,47.7681184 158.773843,47.4806363 159.259,46.961 C159.771954,46.3967582 160.041481,45.6528633 160.009,44.891 C160.040042,44.1413408 159.769991,43.4104008 159.259,42.861 C158.765162,42.3429939 158.07436,42.0594016 157.359,42.081 L157.37,42.061 Z" id="Shape"></path>
        </g>
    </g>
</svg>