<?xml version="1.0" encoding="UTF-8"?>
<svg width="147px" height="51px" viewBox="0 0 147 51" version="1.1" xmlns="http://www.w3.org/2000/svg" xmlns:xlink="http://www.w3.org/1999/xlink">
    <!-- Generator: Sketch 49 (51002) - http://www.bohemiancoding.com/sketch -->
    <title>mvcvmc_logo-inverted-fr</title>
    <desc>Created with Sketch.</desc>
    <defs></defs>
    <g id="Page-1" stroke="none" stroke-width="1" fill="none" fill-rule="evenodd">
        <g id="mvcvmc_logo-inverted-fr" fill="#FFFFFF" fill-rule="nonzero">
            <path d="M131.014,17.743 C130.276382,19.1734574 129.404461,20.5305611 128.41,21.796 C127.217842,23.7133647 125.713817,25.4181512 123.96,26.84 C123.498,27.134 123.87,25.642 123.8,25.633 C125.468756,24.3984463 126.907343,22.8799759 128.05,21.147 C129.326,19.28 130.565,17.661 130.652,17.444 L131.015,17.744 L131.014,17.743 Z" id="Shape"></path>
            <path d="M130.68,17.752 C130.592122,17.7466888 130.503926,17.7510482 130.417,17.765 C130.19537,17.8163381 129.979826,17.8910914 129.774,17.988 C129.521,18.048 129.192,18.118 128.927,18.181 C128.662,18.241 128.443,18.311 128.167,18.351 C127.727413,18.4109708 127.284609,18.4443648 126.841,18.451 C126.527613,18.3820758 126.210378,18.331986 125.891,18.301 C125.478139,18.378211 125.07064,18.4817558 124.671,18.611 C125.086094,18.2525319 125.428902,17.8180817 125.681,17.331 C126.031,16.221 124.171,15.081 122.991,14.691 C123.761,14.841 123.871,13.841 123.651,13.371 C123.581,13.211 123.431,13.171 123.351,13.011 C123.231,12.781 123.361,12.391 123.231,12.181 C123.151,12.031 122.961,11.981 122.841,11.841 C122.55411,11.4929514 122.287022,11.1290434 122.041,10.751 C122.515088,11.1296929 123.036055,11.4456344 123.591,11.691 C123.791,11.741 124.111,11.591 124.301,11.621 C124.5689,11.7032287 124.829743,11.8068971 125.081,11.931 C125.306776,11.9888427 125.538092,12.0223668 125.771,12.031 C125.801,11.921 125.901,11.871 125.931,11.761 C125.981,11.561 125.811,11.311 125.771,11.121 C125.520214,10.054353 125.035152,9.05690073 124.351,8.201 L124.081,7.971 C124.499264,8.19340606 124.947104,8.35503284 125.411,8.451 C126.241,8.411 126.411,6.849 126.361,6.311 C126.304168,6.09520336 126.234034,5.88313124 126.151,5.676 C126.161,5.676 126.011,5.542 126.011,5.536 C126.301,5.61 126.701,5.872 126.951,5.851 C128.081,5.751 127.811,3.611 127.891,3.061 C128.241,3.674 128.171,4.136 128.471,4.771 C128.521,4.861 129.191,5.801 129.141,5.771 C129.061,5.703 129.281,5.806 129.311,5.845 L129.311,5.977 C129.946,6.877 130.307,6.777 130.918,6.617 C130.85928,6.93395905 130.824184,7.25484172 130.813,7.577 C130.833,8.004 131.053,8.457 131.113,8.887 C131.347113,8.93375428 131.58986,8.90937502 131.81,8.817 C132.08,8.717 132.39,8.697 132.54,8.277 C132.57,8.177 132.487,7.915 132.51,7.794 C132.657,7.134 132.7,6.464 132.85,5.854 C132.885,5.884 133.067,6.224 133.075,6.234 C133.294987,6.40355042 133.579242,6.46590306 133.85,6.404 C134.53,6.359 134.813,6.014 135.12,5.24 C135.297182,5.41453221 135.545907,5.49595999 135.792,5.46 C136.232,5.48 136.785,4.69 137.065,4.22 C137.525,3.65 137.065,4.355 137.115,4.733 C137.125,4.903 137.055,4.863 137.015,5.048 C136.984096,5.3260083 137.004432,5.60732704 137.075,5.878 C137.185,6.718 137.695,7.238 138.135,6.723 C137.34,7.873 137.545,8.123 137.855,8.643 C137.900476,8.76152858 137.963148,8.87271972 138.041,8.973 C138.338,9.183 138.901,9.033 139.316,8.836 C138.333,9.366 136.226,12.196 136.88,12.866 C137.106491,12.9024337 137.336769,12.9091571 137.565,12.886 C138.085,12.743 138.935,12.546 139.155,12.446 C139.323205,12.3725814 139.486835,12.2890969 139.645,12.196 L139.933,11.786 C139.943,11.806 139.699,12.386 140.123,12.636 C140.893,13.078 140.981,13.016 142.27,12.536 C141.95,13.406 143.85,13.126 144.687,12.976 C145.339665,12.844075 146.001717,12.7638262 146.667,12.736 C145.791,12.986 143.627,13.236 143.333,14.566 C143.238,14.976 142.953,15.326 144.089,15.496 C143.555169,15.5423972 143.028405,15.6497631 142.519,15.816 C142.214366,16.0042551 142.011005,16.3199797 141.965584,16.675196 C141.920163,17.0304123 142.037537,17.3871489 142.285,17.646 C142.604949,17.9299381 142.957404,18.1749786 143.335,18.376 L142.875,18.396 C142.413,18.356 142.035,18.136 141.6,18.126 C141.21,18.111 140.733,18.379 140.33,18.286 C139.964,18.206 139.82,17.936 139.52,17.892 C139.095724,18.3648504 139.03229,19.0601825 139.364,19.602 C139.378,19.648 139.358,19.796 139.394,19.832 L139.514,19.896 C139.574234,20.1356492 139.654517,20.3698078 139.754,20.596 C139.924,20.856 140.224,21.006 140.394,21.276 C140.454,21.376 140.377,21.541 140.424,21.656 C139.868567,21.3791751 139.195148,21.5293803 138.81,22.016 C137.817,21.686 136.52,21.596 137.08,23.276 C136.29,22.032 134.32,20.216 133.53,22.456 C133.44,22.336 133.35,22.363 133.27,22.246 C133.068644,21.8019979 132.891714,21.3473194 132.74,20.884 C132.6,20.551 132.47,20.341 132.33,20.014 C132.291462,19.8513857 132.237898,19.6927037 132.17,19.54 C131.596,18.77 131.363,19.45 131.39,20.02 L131.17,19.66 C131.094738,19.4504939 131.047659,19.2319129 131.03,19.01 C131.067918,18.8583225 131.097958,18.7047837 131.12,18.55 C131.108,18.468 131.02,18.04 131.01,17.955 L130.75,17.828 L130.68,17.752 Z" id="Shape"></path>
            <path d="M33.553,1.77635599e-15 C25.3190858,0.00276120545 18.6461597,6.67941778 18.6480004,14.9133322 C18.649841,23.1472467 25.3257515,29.8209192 33.5596661,29.8199991 C41.7935807,29.819079 48.4679995,23.1439146 48.468,14.91 C48.4695936,10.9542673 46.8985483,7.16016653 44.1009538,4.36350986 C41.3033593,1.5668532 37.5087319,-0.00291987701 33.553,1.77635599e-15 Z M40.743,21.656 L36.717,21.656 C36.564,21.656 36.545,21.596 36.545,21.5 L36.369,16.472 C36.369,16.472 34.219,18.252 33.409,18.89 C33.229,19.025 33.229,19.025 33.059,18.89 C32.189,18.192 30.349,16.472 30.349,16.472 L30.209,21.366 C30.209,21.618 30.169,21.636 29.949,21.636 L26.409,21.636 C26.209,21.636 26.209,21.696 26.209,21.523 C26.249,17.383 26.439,12.373 26.649,8.503 C26.659,8.27 26.719,8.231 26.919,8.366 C29.079,9.953 32.429,12.776 33.339,13.59 C34.289,12.777 37.749,9.876 39.969,8.27 C40.159,8.115 40.219,8.115 40.239,8.366 C40.549,13.436 40.679,16.722 40.839,21.386 C40.839,21.541 40.899,21.656 40.699,21.656 L40.743,21.656 Z M66.52,8.8817842e-16 C58.2854344,3.83956647e-16 51.61,6.67543438 51.61,14.91 C51.61,23.1445656 58.2854344,29.82 66.52,29.82 C74.7545656,29.82 81.43,23.1445656 81.43,14.91 C81.4300001,10.9551023 79.8587178,7.16223075 77.0619015,4.36597709 C74.2650852,1.56972343 70.4718976,-0.000795754065 66.517,-7.67164517e-16 L66.52,8.8817842e-16 Z M73.662,8.515 C70.932,13.815 69.424,16.679 66.987,21.379 C66.813,21.719 66.542,21.739 66.367,21.419 C63.969,17.139 62.034,13.619 59.384,8.509 C59.209,8.199 59.209,8.159 59.499,8.159 L64.349,8.159 C64.519,8.159 64.519,8.179 64.579,8.309 C65.289,9.909 66.799,13.569 66.799,13.569 L68.689,8.399 C68.759,8.219 68.759,8.159 68.919,8.159 L73.519,8.159 C73.809,8.159 73.829,8.179 73.649,8.509 L73.662,8.515 Z M99.442,8.8817842e-16 C91.2078251,0.00165677567 84.5338957,6.67782461 84.5350001,14.9119996 C84.5361046,23.1461746 91.2118248,29.8205518 99.4459998,29.8199997 C107.680175,29.8194475 114.355,23.1441751 114.355,14.91 C114.355,10.9551023 112.783718,7.16223075 109.986902,4.36597709 C107.190085,1.56972343 103.396898,-0.000795754065 99.442,8.8817842e-16 Z M106.099,17.53 C105.026647,20.1676695 102.466312,21.8955008 99.619,21.903 C97.7291785,22.019811 95.8788469,21.3274434 94.529917,19.9987379 C93.1809871,18.6700324 92.4607487,16.8303703 92.549,14.939 C92.4928747,13.042077 93.228054,11.2072337 94.5784759,9.87388173 C95.9288978,8.54052976 97.7729444,7.82874971 99.669,7.909 C102.435207,7.7893007 104.969744,9.44680737 105.969,12.029 C106.049,12.259 105.969,12.319 105.869,12.359 L102.099,13.729 C101.979,13.759 101.959,13.689 101.919,13.609 C101.499025,12.7448855 100.585061,12.2340231 99.629,12.329 C98.9235307,12.2723079 98.2290482,12.5301472 97.7314991,13.0334818 C97.2339499,13.5368165 96.9841563,14.2342332 97.049,14.939 C97.0118806,15.6429038 97.2809836,16.3284677 97.7870186,16.8191683 C98.2930536,17.3098689 98.9865712,17.5577552 99.689,17.499 C100.605918,17.5465505 101.466048,17.0539306 101.889,16.239 C101.949,16.099 101.959,16.059 102.119,16.099 L105.889,17.259 C106.099,17.279 106.119,17.389 106.059,17.509 L106.099,17.53 Z M0.41,40.104 L2.83,40.104 L2.83,41.212 C3.21415175,40.7798301 3.68414022,40.4324473 4.21,40.192 C4.73188629,39.9635991 5.29635718,39.8487279 5.866,39.855 C6.44064327,39.8477758 7.00588091,40.0012074 7.498,40.298 C8.00001327,40.6134484 8.40495331,41.0616513 8.668,41.593 C9.02532095,41.0502374 9.51234631,40.6051437 10.085,40.298 C10.6500811,40.0013338 11.2798047,39.849142 11.918,39.855 C12.5544465,39.8417788 13.1817425,40.0081336 13.728,40.335 C14.2232318,40.6250195 14.616031,41.0618514 14.852,41.585 C15.1241903,42.3916786 15.2395965,43.2429692 15.192,44.093 L15.192,49.751 L12.76,49.751 L12.76,44.861 C12.8299964,44.097594 12.6888576,43.3296328 12.352,42.641 C12.0715285,42.2492764 11.6087814,42.0300008 11.128,42.061 C10.7279931,42.0585339 10.3377923,42.1847444 10.015,42.421 C9.67964161,42.6678199 9.42548364,43.0090183 9.285,43.401 C9.09329902,44.052893 9.01217602,44.7322981 9.045,45.411 L9.045,49.761 L6.605,49.761 L6.605,45.081 C6.63069012,44.4516943 6.56603245,43.8219556 6.413,43.211 C6.31526473,42.8720989 6.11512286,42.5717115 5.84,42.351 C5.57219282,42.1555083 5.24748591,42.0535981 4.916,42.061 C4.52066866,42.0589065 4.13534708,42.1852415 3.818,42.421 C3.4768982,42.6766507 3.21991741,43.0283453 3.08,43.431 C2.88584535,44.0927238 2.80305004,44.7821215 2.835,45.471 L2.835,49.761 L0.415,49.761 L0.41,40.104 Z M17.944,40.104 L20.392,40.104 L20.392,44.751 C20.3602868,45.3867869 20.4233096,46.0237552 20.579,46.641 C20.6877663,46.9706417 20.8977245,47.2575845 21.179,47.461 C21.4784849,47.6668433 21.83576,47.7719242 22.199,47.761 C22.5606636,47.7709761 22.9166816,47.6697553 23.219,47.471 C23.5093866,47.2637019 23.7264775,46.9695788 23.839,46.631 C23.9708059,46.0474168 24.0212839,45.448411 23.989,44.851 L23.989,40.121 L26.409,40.121 L26.409,44.201 C26.4784743,45.3688352 26.3431003,46.5398209 26.009,47.661 C25.7176546,48.3742658 25.2151958,48.9814035 24.569,49.401 C23.8383351,49.8341733 22.9976934,50.0460706 22.149,50.011 C21.2386193,50.0537308 20.3383345,49.8050139 19.579,49.301 C18.9150633,48.8137764 18.430079,48.1214437 18.199,47.331 C17.9600335,46.2854326 17.862496,45.2125193 17.909,44.141 L17.944,40.104 Z M35.214,41.452 L33.714,42.952 C33.2985584,42.4480041 32.704617,42.1238081 32.056,42.047 C31.8295215,42.0334525 31.6048098,42.0941949 31.416,42.22 C31.2724413,42.3160262 31.186186,42.4772861 31.186,42.65 C31.1869472,42.7842337 31.2391796,42.913026 31.332,43.01 C31.5477805,43.1958803 31.7914155,43.3467181 32.054,43.457 L32.939,43.9 C33.6790662,44.2158305 34.3361544,44.6983796 34.859,45.31 C35.6913813,46.5151243 35.5078922,48.1494574 34.429,49.14 C33.7267148,49.7397272 32.8212912,50.0474997 31.899,50 C30.5722156,50.0397979 29.3112347,49.4224037 28.529,48.35 L30.019,46.728 C30.2958268,47.0552763 30.6316452,47.3276624 31.009,47.531 C31.3155709,47.7146535 31.6621864,47.8210404 32.019,47.841 C32.2943936,47.854455 32.5661032,47.773295 32.789,47.611 C32.964353,47.4904157 33.0719914,47.2936973 33.079,47.081 C33.079,46.7076667 32.7256667,46.3443333 32.019,45.991 L31.199,45.581 C29.639,44.7943333 28.859,43.811 28.859,42.631 C28.8536545,41.8837136 29.1751089,41.1714001 29.739,40.681 C30.358883,40.1282996 31.1691587,39.837891 31.999,39.871 C33.2487068,39.865392 34.4261947,40.4559932 35.169,41.461 L35.214,41.452 Z M47.42,45.63 L39.643,45.63 C39.7294418,46.2676096 40.0503043,46.8501532 40.543,47.264 C41.0724047,47.6837771 41.7349265,47.8995314 42.41,47.872 C43.2839293,47.884311 44.125453,47.5414947 44.742,46.922 L46.782,47.882 C46.3201176,48.5630354 45.691007,49.1139807 44.955,49.482 C44.1628242,49.8450759 43.2981322,50.0222557 42.427,50 C41.0494843,50.0537528 39.7110622,49.5354671 38.729,48.568 C37.7785586,47.6199642 37.2612123,46.3218952 37.299,44.98 C37.2559855,43.6160628 37.7684336,42.2930805 38.719,41.314 C39.6508341,40.3470964 40.9466665,39.8171481 42.289,39.854 C43.6755438,39.7997212 45.0213168,40.3293246 45.999,41.314 C46.977709,42.3521315 47.4936796,43.7427264 47.429,45.168 L47.42,45.63 Z M45,43.72 C44.8434818,43.1873252 44.5092773,42.7243091 44.053,42.408 C43.574375,42.0685683 42.9996687,41.8912504 42.413,41.902 C41.7748664,41.8902821 41.1507805,42.0899896 40.638,42.47 C40.2436222,42.8072217 39.9385976,43.236592 39.75,43.72 L45,43.72 Z M59.5,45.63 L51.722,45.63 C51.8079769,46.2677632 52.128926,46.8504641 52.622,47.264 C53.1514047,47.6837771 53.8139265,47.8995314 54.489,47.872 C55.362282,47.8839971 56.2030679,47.5411875 56.819,46.922 L58.859,47.882 C58.3962852,48.5634261 57.7661028,49.1144052 57.029,49.482 C56.2365967,49.8454624 55.3714899,50.0226571 54.5,50 C53.1225245,50.0535121 51.7841946,49.5352622 50.802,48.568 C49.8519163,47.6201383 49.3346094,46.32253 49.372,44.981 C49.3327976,43.6183541 49.8472524,42.2979441 50.798,41.321 C51.7301185,40.3545159 53.0257575,39.8246467 54.368,39.861 C55.7534729,39.8078185 57.0978951,40.3373185 58.075,41.321 C59.0552394,42.3606035 59.571327,43.7536789 59.505,45.181 L59.5,45.63 Z M57.08,43.722 C56.923924,43.1891087 56.5896221,42.7259575 56.133,42.41 C55.6541908,42.0710506 55.0795374,41.8940994 54.493,41.905 C53.8548664,41.8932821 53.2307805,42.0929896 52.718,42.473 C52.3236222,42.8102217 52.0185976,43.239592 51.83,43.723 L57.08,43.723 L57.08,43.722 Z M60.88,40.104 L63.346,40.104 L65.784,45.797 L68.217,40.104 L70.671,40.104 L66.571,49.752 L65,49.752 L60.88,40.104 Z M73.484,36.13 C73.8967769,36.125053 74.2929118,36.2924952 74.577,36.592 C74.8752167,36.8863241 75.0396797,37.2900717 75.032,37.709 C75.0389056,38.121808 74.8762565,38.5193946 74.582,38.809 C74.3002605,39.1026875 73.9089201,39.265746 73.502,39.259 C73.0856824,39.2633473 72.6866353,39.0928454 72.402,38.789 C72.1027258,38.4898958 71.9377853,38.0820559 71.945,37.659 C71.9431396,37.2490788 72.1044717,36.8552656 72.3933931,36.564468 C72.6823146,36.2736704 73.0750754,36.1097928 73.485,36.109 L73.484,36.13 Z M72.274,40.104 L74.694,40.104 L74.694,49.752 L72.274,49.752 L72.274,40.104 Z M76.78,40.104 L78.855,40.104 L78.855,41.319 C79.0468986,40.8796629 79.3571044,40.5022919 79.751,40.229 C80.1127613,39.9800839 80.5418779,39.8475113 80.981,39.849 C81.3257128,39.8559996 81.6642925,39.9414995 81.971,40.099 L81.221,42.179 C81.0061641,42.0578685 80.7670363,41.9861301 80.521,41.969 C80.1021924,42.0021897 79.7381801,42.2693902 79.581,42.659 C79.2584108,43.5238607 79.1287187,44.44877 79.201,45.369 L79.211,45.839 L79.211,49.739 L76.8,49.739 L76.78,40.104 Z M83.903,36.548 L86.323,36.548 L86.323,40.104 L87.763,40.104 L87.763,42.188 L86.323,42.188 L86.323,49.752 L83.903,49.752 L83.903,42.188 L82.663,42.188 L82.663,40.104 L83.903,40.104 L83.903,36.548 Z M89.5,40.104 L91.948,40.104 L91.948,44.751 C91.9166244,45.3867212 91.9793005,46.023591 92.134,46.641 C92.2427663,46.9706417 92.4527245,47.2575845 92.734,47.461 C93.0329886,47.6663086 93.3894555,47.7713578 93.752,47.761 C94.1159838,47.7720312 94.4745448,47.6707822 94.779,47.471 C95.0693866,47.2637019 95.2864775,46.9695788 95.399,46.631 C95.5302764,46.0473352 95.5807483,45.4484028 95.549,44.851 L95.549,40.121 L97.969,40.121 L97.969,44.201 C98.0384743,45.3688352 97.9031003,46.5398209 97.569,47.661 C97.2793935,48.3779489 96.7767737,48.9887716 96.129,49.411 C95.4012662,49.8424023 94.5643399,50.0542384 93.719,50.021 C92.8086036,50.063871 91.9082759,49.8151424 91.149,49.311 C90.4848474,48.8239877 89.9998066,48.1315745 89.769,47.341 C89.5291396,46.2921852 89.4315965,45.2158481 89.479,44.141 L89.5,40.104 Z M110.528,45.63 L102.751,45.63 C102.836977,46.2677632 103.157926,46.8504641 103.651,47.264 C104.181197,47.6844634 104.844908,47.9002583 105.521,47.872 C106.397648,47.8862603 107.242384,47.5433119 107.861,46.922 L109.901,47.882 C109.437947,48.563127 108.807852,49.1140304 108.071,49.482 C107.281504,49.844805 106.419623,50.0226535 105.551,50.002 C104.172692,50.0558065 102.833509,49.5371446 101.851,48.569 C100.90381,47.6187287 100.390141,46.3200871 100.431,44.979 C100.390129,43.6123413 100.90626,42.2877231 101.861,41.309 C102.793119,40.3425159 104.088757,39.8126467 105.431,39.849 C106.817544,39.7947212 108.163317,40.3243246 109.141,41.309 C110.11869,42.3461497 110.634583,43.7350917 110.571,45.159 L110.528,45.63 Z M108.108,43.722 C107.951924,43.1891087 107.617622,42.7259575 107.161,42.41 C106.684961,42.0730853 106.114136,41.8962348 105.531,41.905 C104.894603,41.8946133 104.272519,42.0942423 103.761,42.473 C103.365893,42.8099901 103.060167,43.2393802 102.871,43.723 L108.121,43.723 L108.108,43.722 Z M112.678,36.38 L115.098,36.38 L115.098,49.75 L112.678,49.75 L112.678,36.38 Z M119.072,47.225 C119.441187,47.2197647 119.796545,47.3653026 120.056,47.628 C120.453054,48.0257637 120.571506,48.6234916 120.356152,49.1426162 C120.140798,49.6617408 119.634021,50.0000986 119.072,50 C118.703003,50.0005309 118.348937,49.8543193 118.087828,49.5935862 C117.82672,49.3328531 117.68,48.9789977 117.68,48.61 C117.67383,48.2410149 117.821248,47.8860543 118.087,47.63 C118.345247,47.3652752 118.701228,47.2187585 119.071,47.225 L119.072,47.225 Z M132.73,42.055 L130.714,43.163 C130.400328,42.8137603 130.018042,42.5329181 129.591,42.338 C129.177069,42.1763744 128.735259,42.0982081 128.291,42.108 C127.482103,42.0745839 126.693473,42.3662689 126.101,42.918 C125.540217,43.4602062 125.235056,44.2143898 125.261,44.994 C125.234486,45.7484201 125.528803,46.4787619 126.071,47.004 C126.645007,47.5369077 127.408484,47.8178096 128.191,47.784 C129.162169,47.8335669 130.099831,47.4221816 130.721,46.674 L132.631,47.982 C131.595962,49.1678973 130.128792,49.8894673 128.557656,49.9853141 C126.986519,50.0811609 125.442517,49.5432869 124.271,48.492 C123.153177,47.364176 122.635803,45.7734343 122.876311,44.2038258 C123.116818,42.6342173 124.086764,41.2713743 125.491,40.53 C126.356385,40.0734041 127.322652,39.8416376 128.301,39.856 C129.19401,39.841173 130.077932,40.0371431 130.881,40.428 C131.637527,40.7990754 132.285178,41.3595699 132.761,42.055 L132.73,42.055 Z M142.487,40.105 L144.909,40.105 L144.909,49.752 L142.479,49.752 L142.479,48.732 C142.069204,49.1397357 141.587849,49.4685486 141.059,49.702 C140.567409,49.9038143 140.04038,50.0051398 139.509,50 C138.270531,50.0060498 137.089646,49.4775676 136.269,48.55 C135.354598,47.5765476 134.86214,46.2810586 134.899,44.946 C134.846547,43.5999009 135.319948,42.2862145 136.219,41.283 C137.02683,40.3637287 138.195281,39.8423076 139.419,39.855 C139.979115,39.851005 140.534026,39.962668 141.049,40.183 C141.575183,40.4168945 142.05072,40.751129 142.449,41.167 L142.449,40.104 L142.487,40.105 Z M139.942,42.09 C139.235188,42.0721459 138.555307,42.3613874 138.078,42.883 C137.573063,43.4376582 137.306232,44.1684806 137.335,44.918 C137.307121,45.6766357 137.578656,46.4158137 138.091,46.976 C138.565385,47.5009593 139.243558,47.795199 139.951,47.783 C140.66911,47.804225 141.361519,47.5148711 141.851,46.989 C142.365875,46.4219181 142.635495,45.6741723 142.601,44.909 C142.633623,44.1561029 142.363537,43.4214706 141.851,42.869 C141.356146,42.3524827 140.666037,42.0691747 139.951,42.089 L139.942,42.09 Z" id="Shape"></path>
        </g>
    </g>
</svg>