<svg xmlns="http://www.w3.org/2000/svg" viewBox="0 0 576 576" xml:space="preserve">
	<style>
		path {
			fill="#0D4D72"
		}
		@media ( prefers-color-scheme: dark ) {
			path {
				fill: #43C1C5;
			}
		}
	</style>
	<path d="M300.59 74.72h-25.16v-25.2h25.16v25.2zM75.26 249.13H50.03v25.22h25.23v-25.22zm450.72 0h-25.23v25.22h25.23v-25.22zM437.24 99.66l-17.83 17.85 17.83 17.84 17.84-17.84-17.84-17.85zM157.81 118.2l-17.85-17.81-17.84 17.81 17.84 17.8 17.85-17.8zm405.7 169.81c0 152.14-123.36 275.48-275.51 275.48-152.14 0-275.51-123.34-275.51-275.48C12.49 135.89 135.85 12.5 288 12.5c152.15 0 275.51 123.39 275.51 275.51zm-21.41 0c0-140.29-113.74-254.07-254.1-254.07-140.3 0-254.1 113.79-254.1 254.07 0 57.18 18.98 110.01 50.83 152.43 0-2.17.15-24.01 3.16-29.98-2.52-2.57-22.94-13.92-28.97-45.33-6.27-32.75 5.28-75.94 33.38-99.48.41-.39.92-.68 1.35-1.06C104.05 164.98 188.23 87.3 290.6 87.3c109.41 0 198.11 88.7 198.11 198.13 0 109.33-88.69 198.03-198.11 198.03-18.63 0-36.69-2.64-53.82-7.44.11-.17.17-.36.28-.55-31.76-8.44-40.5-24.43-40.96-39.54-.56-19.72 6.81-39.14 33.19-45.18 20.75-4.77 31.75 4.96 50.83 11.33-6.36-22.65-26.39-51.94-58.6-65-26.17-10.6-64.96-4.91-90.36 18.35-29.6 27.14-39.53 49.44-40.23 84.03l.72 9.4c.21.37.4.78.59 1.16 46.62 56.23 116.95 92.05 195.74 92.05 140.38 0 254.12-113.73 254.12-254.06zM392.35 145.19c-25.71-19.05-56.88-31.05-90.73-33.41v124.97l90.73-91.56zm-61.82 99.73h127.49c-7.36-31.75-23.53-60.16-45.74-82.52l-81.75 82.52zm-109.67 33.65c14.52 18.23 19.38 30.49 19.38 30.49s-25.18-21.38-56.03-12.56c-19.25 5.52-22.25 16.03-25.8 32.08 11.33-5.03 28.89-5.03 37.78-5.03 15.75 0 41.55 10.08 44.71 15.75 8.13-13.88 17.6-35.54 47.19-43.44 28.35-7.55 61.71-6.3 84.41 16.35 22.59 22.67 33.99 52.29 34.59 64.9-9.41-8.87-18.28-21.45-42.21-23.98-23.88-2.49-36.42 7.54-45.91 23.98-6.96 11.93-7.12 40.08 4.37 51.57 9.34 9.31 25.94 12.02 39.14 12.56 59.09-27.53 100.12-87.41 100.12-156.93 0-1.92-.11-3.8-.17-5.75H220.86zm54.57-166.67c-32.54 2.65-62.49 14.27-87.41 32.38l87.41 88.23V111.9zm-107.54 49.46a172.735 172.735 0 0 0-46.74 83.56h16.36c14.62-3.13 29.64-3.5 42.45 0h70.75l-82.82-83.56z"/>
</svg>